<svg xmlns="http://www.w3.org/2000/svg" viewBox="0 0 233.81 88.12"><defs><style>.cls-1,.cls-2{fill:#fff;}.cls-2{fill-rule:evenodd;}</style></defs><g id="Camada_2" data-name="Camada 2"><g id="Camada_1-2" data-name="Camada 1"><path class="cls-1" d="M222.54,22.2h3.18c.81,0,1.21.12,1.21.35a6.84,6.84,0,0,1-1.32,1.53c-.88.89-1.77,1.74-2.67,2.56a10.58,10.58,0,0,1-1.86,1.48,6.21,6.21,0,0,1-2.88.69c-.67,0-1-.2-1-.59a3.33,3.33,0,0,1,.61-1.39l1.06-2a6.45,6.45,0,0,1,1.61-2.19,3.64,3.64,0,0,1,2.07-.47m-6.6,20.2h11.65a7.8,7.8,0,0,0-1.78-4.92,5.32,5.32,0,0,0-4.06-1.63,5.16,5.16,0,0,0-3.94,1.65A8.18,8.18,0,0,0,215.94,42.4Zm12.57,3.67H215.94a8.48,8.48,0,0,0,.88,3.86,5.9,5.9,0,0,0,5.42,3.37,7.76,7.76,0,0,0,2.11-.27,6.69,6.69,0,0,0,1.85-.85A12.3,12.3,0,0,0,227.84,51c.51-.45,1.16-1,2-1.8a2.09,2.09,0,0,1,1.4-.42,2.36,2.36,0,0,1,1.61.54,2,2,0,0,1,.61,1.53,4.22,4.22,0,0,1-.68,2,7.91,7.91,0,0,1-2.07,2.23,11.4,11.4,0,0,1-3.45,1.78,15,15,0,0,1-4.79.7q-6.19,0-9.63-3.53t-3.43-9.58a16.12,16.12,0,0,1,.84-5.29A11.74,11.74,0,0,1,212.69,35a10.74,10.74,0,0,1,4-2.67,14.33,14.33,0,0,1,5.27-.93A12.45,12.45,0,0,1,228.42,33a10.47,10.47,0,0,1,4.05,4.12,10.85,10.85,0,0,1,1.34,5.13c0,1.62-.47,2.67-1.39,3.15A8.65,8.65,0,0,1,228.51,46.07Zm-28-1.45a29.14,29.14,0,0,1-4.1,1.09c-1.79.39-3,.68-3.73.86a5,5,0,0,0-2,1.06,2.75,2.75,0,0,0-.94,2.21,3.25,3.25,0,0,0,1.11,2.48,4.09,4.09,0,0,0,2.89,1,7.49,7.49,0,0,0,3.52-.84,5.62,5.62,0,0,0,2.37-2.16,9.89,9.89,0,0,0,.86-4.81Zm.43,9.32a20.12,20.12,0,0,1-4.51,2.7,12.48,12.48,0,0,1-4.88.9,9.27,9.27,0,0,1-4.35-1,7.12,7.12,0,0,1-2.89-2.64,6.92,6.92,0,0,1-1-3.62A6.5,6.5,0,0,1,185,45.8a8.43,8.43,0,0,1,4.61-2.5l3-.63c1.61-.33,3-.63,4.15-.91s2.4-.6,3.75-1a6.67,6.67,0,0,0-1-3.73c-.61-.79-1.85-1.18-3.76-1.18a7.74,7.74,0,0,0-3.68.68,5.83,5.83,0,0,0-2.12,2c-.59.91-1,1.5-1.24,1.8a2.09,2.09,0,0,1-1.57.43,2.68,2.68,0,0,1-1.87-.7,2.23,2.23,0,0,1-.79-1.77,5.46,5.46,0,0,1,1.2-3.31,8.59,8.59,0,0,1,3.74-2.63,16.92,16.92,0,0,1,6.34-1,17.82,17.82,0,0,1,6.66,1,6.18,6.18,0,0,1,3.43,3.16,14,14,0,0,1,1,5.75c0,1.51,0,2.79,0,3.84s0,2.23,0,3.51a12.63,12.63,0,0,0,.61,3.78,11.45,11.45,0,0,1,.59,2.52,2.38,2.38,0,0,1-.92,1.8,3.16,3.16,0,0,1-2.12.81,2.81,2.81,0,0,1-1.95-.92A13.91,13.91,0,0,1,201,53.94ZM181.89,49.6a5.54,5.54,0,0,1-.72,2.56A8.65,8.65,0,0,1,179,54.75a11.36,11.36,0,0,1-3.71,2,15.51,15.51,0,0,1-5,.76q-6,0-9.3-3.48t-3.35-9.31a15.31,15.31,0,0,1,1.54-7,11,11,0,0,1,4.42-4.7,13.83,13.83,0,0,1,6.93-1.66,13.67,13.67,0,0,1,4.58.73A12.07,12.07,0,0,1,178.58,34a9.13,9.13,0,0,1,2.21,2.46,4.83,4.83,0,0,1,.77,2.44,2.59,2.59,0,0,1-.86,2,3,3,0,0,1-2.09.8,2.1,2.1,0,0,1-1.32-.41,6.28,6.28,0,0,1-1.19-1.33,9.82,9.82,0,0,0-2.46-2.68,5.64,5.64,0,0,0-3.26-.89,5.53,5.53,0,0,0-4.59,2.22A9.56,9.56,0,0,0,164,44.63a12.13,12.13,0,0,0,.45,3.33,7.37,7.37,0,0,0,1.3,2.58,5.4,5.4,0,0,0,2.05,1.63,6.16,6.16,0,0,0,2.63.55,5.94,5.94,0,0,0,3.3-.89,7.75,7.75,0,0,0,2.45-2.73,5.7,5.7,0,0,1,1.27-1.69,2.4,2.4,0,0,1,1.67-.62,2.48,2.48,0,0,1,2,.9A2.86,2.86,0,0,1,181.89,49.6Zm-33.11-5a29.35,29.35,0,0,1-4.11,1.09c-1.79.39-3,.68-3.73.86a5,5,0,0,0-2,1.06,2.75,2.75,0,0,0-.94,2.21,3.25,3.25,0,0,0,1.11,2.48,4.1,4.1,0,0,0,2.9,1,7.45,7.45,0,0,0,3.51-.84,5.57,5.57,0,0,0,2.37-2.16,9.87,9.87,0,0,0,.87-4.81Zm.42,9.32a20.12,20.12,0,0,1-4.51,2.7,12.48,12.48,0,0,1-4.88.9,9.3,9.3,0,0,1-4.35-1,7.09,7.09,0,0,1-2.88-2.64,6.84,6.84,0,0,1-1-3.62,6.5,6.5,0,0,1,1.67-4.5,8.46,8.46,0,0,1,4.61-2.5l3-.63c1.61-.33,3-.63,4.15-.91s2.41-.6,3.76-1a6.75,6.75,0,0,0-1-3.73c-.61-.79-1.86-1.18-3.76-1.18a7.76,7.76,0,0,0-3.69.68,5.91,5.91,0,0,0-2.12,2c-.58.91-1,1.5-1.24,1.8a2.07,2.07,0,0,1-1.57.43,2.7,2.7,0,0,1-1.87-.7,2.26,2.26,0,0,1-.79-1.77,5.46,5.46,0,0,1,1.2-3.31,8.65,8.65,0,0,1,3.74-2.63,16.92,16.92,0,0,1,6.34-1,17.91,17.91,0,0,1,6.67,1,6.19,6.19,0,0,1,3.42,3.16,13.83,13.83,0,0,1,1,5.75c0,1.51,0,2.79,0,3.84s0,2.23,0,3.51a12.93,12.93,0,0,0,.6,3.78,11.45,11.45,0,0,1,.59,2.52,2.35,2.35,0,0,1-.92,1.8,3.16,3.16,0,0,1-2.11.81,2.85,2.85,0,0,1-2-.92A14.33,14.33,0,0,1,149.2,53.94Zm-41.53-2.18-5.54-22V53.59a4.39,4.39,0,0,1-.88,3,3,3,0,0,1-2.34,1,3,3,0,0,1-2.3-1,4.25,4.25,0,0,1-.89-3V26.28c0-1.51.39-2.52,1.17-3.05a5.7,5.7,0,0,1,3.17-.79h2.17a8.3,8.3,0,0,1,2.83.35,2.39,2.39,0,0,1,1.31,1.27,20.16,20.16,0,0,1,1,3l5,18.92,5-18.92a20.41,20.41,0,0,1,1-3,2.41,2.41,0,0,1,1.3-1.27,8.45,8.45,0,0,1,2.84-.35h2.16a5.67,5.67,0,0,1,3.18.79c.78.53,1.18,1.54,1.18,3.05V53.59a4.34,4.34,0,0,1-.89,3,3,3,0,0,1-2.35,1,2.94,2.94,0,0,1-2.28-1,4.29,4.29,0,0,1-.9-3V29.77l-5.53,22c-.36,1.42-.65,2.47-.89,3.14a4.3,4.3,0,0,1-1.25,1.82,3.69,3.69,0,0,1-2.55.82,3.75,3.75,0,0,1-2.07-.53A3.79,3.79,0,0,1,109,55.66a7.8,7.8,0,0,1-.74-1.82C108,53.17,107.85,52.47,107.67,51.76Z"/><path class="cls-1" d="M225.2,69.9l3.74-8.61h.89l3.79,8.61h-1.28l-1.11-2.53h-3.67l-1.09,2.53ZM228,66.26h2.69l-1.36-3.11ZM212.93,65h1a2.12,2.12,0,0,0,1.29-.33,1.47,1.47,0,0,0,0-2,2.15,2.15,0,0,0-1.31-.32h-1Zm-1.24,4.88V61.29h2.52a3,3,0,0,1,2,.61,2.53,2.53,0,0,1,.32,3.11,2.31,2.31,0,0,1-1.23.78,1.92,1.92,0,0,1,.41.31,4.64,4.64,0,0,1,.49.65l2.09,3.15h-1.49l-1.47-2.26a5.23,5.23,0,0,0-1.08-1.3,1.65,1.65,0,0,0-1-.28h-.37V69.9Zm-16.78-8.61h1.23v4.94a6.15,6.15,0,0,0,.08,1.17,1.56,1.56,0,0,0,.31.6,2.36,2.36,0,0,0,.9.67,3,3,0,0,0,1.19.22,2.7,2.7,0,0,0,1.8-.57,1.91,1.91,0,0,0,.69-1.53v-5.5h1.22v5.53a3,3,0,0,1-1,2.34,3.91,3.91,0,0,1-2.68.89,4.4,4.4,0,0,1-1.77-.34,3.6,3.6,0,0,1-1.33-1,2.47,2.47,0,0,1-.47-.89,6.23,6.23,0,0,1-.14-1.52ZM182,69.9V62.41h-3.17V61.29h7.56v1.12h-3.17V69.9Zm-13,0V61.29h1.23V69.9Zm-14.47,0V61.29h5.18v1.09h-4V65h3.85v1.11h-3.85v2.68h4.09V69.9Zm-13.91,0V61.29h4.9v1.09h-3.68v2.55h3.57V66h-3.57V69.9Zm-14.44,0V61.29h5.19v1.09h-4V65h3.84v1.11h-3.84v2.68h4.08V69.9ZM112.69,65h1a2.08,2.08,0,0,0,1.29-.33,1.2,1.2,0,0,0,.43-1,1.21,1.21,0,0,0-.41-1,2.15,2.15,0,0,0-1.31-.32h-1Zm-1.24,4.88V61.29H114a3,3,0,0,1,2,.61,2.53,2.53,0,0,1,.32,3.11,2.31,2.31,0,0,1-1.23.78,1.7,1.7,0,0,1,.41.31,5.42,5.42,0,0,1,.5.65l2.09,3.15h-1.49l-1.48-2.26a4.82,4.82,0,0,0-1.08-1.3,1.63,1.63,0,0,0-1-.28h-.37V69.9Zm-14.39,0V61.29h2.69a3.07,3.07,0,0,1,2.1.65,2.52,2.52,0,0,1,0,3.61,3.12,3.12,0,0,1-2.1.64H98.28V69.9Zm1.22-4.8h1.34a2.12,2.12,0,0,0,1.3-.32,1.5,1.5,0,0,0,0-2.06,2.05,2.05,0,0,0-1.3-.32H98.28Z"/><path class="cls-1" d="M44.06,85.91A41.85,41.85,0,1,1,85.91,44.06,41.89,41.89,0,0,1,44.06,85.91Zm0-82.48A40.64,40.64,0,1,0,84.7,44.06,40.68,40.68,0,0,0,44.06,3.43Z"/><path class="cls-1" d="M44.06,88.12A44.06,44.06,0,1,1,88.12,44.06,44.11,44.11,0,0,1,44.06,88.12ZM44.06,1A43.12,43.12,0,1,0,87.18,44.06,43.16,43.16,0,0,0,44.06,1Z"/><path class="cls-2" d="M37.82,21.44h0l.44,1.63L40,22.61,39.55,21a1,1,0,0,0-.73-.73.68.68,0,0,0-.2,0,.63.63,0,0,0-.19,0h0a.84.84,0,0,0-.53.43,1.09,1.09,0,0,0-.07.76m.18-.05v-.58l0,0,0,0v0l0,0,0,0,0,0,0,0,0,0,0,0,0,0,0,0h0l0,0,0,0h.5l0,0h0l0,0,0,0,0,0,0,0,0,0,0,0,0,0,0,0,0,0,0,0,0,0,0,0,0,0,0,0,0,0,0,.05V21l.4,1.49-1.36.36Z"/><path class="cls-2" d="M44.92,20.49v-.34l0,0,0,0,0,0,0,0,0,0,0,0,0,0,0,0,0,0,0,0,0,0,0,0,0,0h0l0,0,0,0H44l0,0,0,0h0l0,0,0,0,0,0,0,0,0,0,0,0,0,0,0,0,0,0,0,0,0,0,0,0v0l0,0V22h1.4Zm.19,0h0a1,1,0,0,0-.27-.7.83.83,0,0,0-.62-.29h0a.83.83,0,0,0-.62.29,1,1,0,0,0-.27.7h0v1.67h1.78V20.49Z"/><path class="cls-2" d="M53.88,24.85v-.13a0,0,0,0,1,0,0h0l-.57-.3L54.05,23l0-.05,0,0,0,0,0,0,0,0,0,0,0,0,0,0,0,0,0,0,0,0,0,0,0,0,0,0,0,0h.41l.06-.13-.11,0a.55.55,0,0,0-.18,0,1,1,0,0,0-.81.53l-.79,1.49Z"/><path class="cls-2" d="M50.6,21.58a1.7,1.7,0,0,0,0-.22,1.55,1.55,0,0,0,0-.22.91.91,0,0,0-.62-.77h0l-.19,0-.2,0a1,1,0,0,0-.75.71L48.4,22.7l1.72.5.47-1.62Zm-.19,0V21l0,0v0l0,0v0l0,0,0,0,0,0,0,0,0,0,0,0,0,0,0,0,0,0,0,0,0,0H50l0,0h-.45l0,0,0,0h0l0,0,0,0,0,0,0,0,0,0,0,0,0,0,0,0,0,0,0,0,0,0,0,0v0l0,0,0,0v.05l-.43,1.47L50,23Z"/><path class="cls-2" d="M33.26,22.4l.07.13h.32l0,0h0l0,0h0l0,0,0,0,0,0,0,0,0,0,0,0,0,0,0,0,0,0,0,0,0,0,0,0,0,0,.67,1.37-.48.23,0,.06v.08l.68-.33-.73-1.49h0l-.11-.18a.93.93,0,0,0-.14-.14.89.89,0,0,0-.82-.22"/><path class="cls-1" d="M24.17,47.34l-6.28,4.35,0,0h-.05l-2-.42h0c-.86.61-1.6,1.12-2.35,1.63h0l-1.08.75-1,.68h0l2.81.58.1,0v.1l-.45,2.84,1.42-1h0l1.49-1,.73-.51v-.07l.05-.28.14.22.55-.38h0l.33-2v-.05l0,0,6.51-4.52Zm.18-.13.83.75a2,2,0,0,0-.07.23h0c0-.09.05-.17.07-.25v0Zm1.21-.38a1.43,1.43,0,0,0-.08.22h0c-.06.14-.11.28-.16.43.08-.23.16-.45.25-.66Zm6.13-4.7-.21.15c-.19.66-.48,1.32-.71,2l.92-.64Zm2.16-15.71-6-4.15-.14-.09.15-.09,1.49-.88-6.8-1.86L27,24.82l.18-1.58,0-.18.15.11,4.7,3.25Zm22.67,0,4.42-3.06.15-.11,0,.19.19,1.65,4.83-5.93-7.38,2h0l1.57.92.15.08-.14.1-6,4.14Zm6.87,21.71,6.51,4.51,0,0v0l.32,2,.54.37L70.9,55l0,.23,2.27,1.57,1.24.86L74,55l0-.11.1,0,2.67-.55L74.91,53l-2.31-1.6-2,.42h0l0,0-6.32-4.38Zm-.72-1.73Zm.6,1.65h0l0-.08c-.09-.31-.19-.62-.3-.92l-.09-.22c-.06-.14-.12-.29-.19-.43A10.48,10.48,0,0,1,63.27,48.05Zm-6.54-4.53.87.6c-.2-.55-.43-1.1-.6-1.65l-.27-.19Z"/><path class="cls-2" d="M63.25,48,66,45.47l-.59-.65L63,47.05c.11.3.21.61.3.92m1.39-4-2.17,2c.14.27.27.55.39.83l2.38-2.17Z"/><path class="cls-2" d="M23.19,44.66l2.37,2.17q.18-.42.39-.84l-2.17-2Zm2.29,2.39L23,44.82l-.59.65L25.18,48A7.45,7.45,0,0,1,25.48,47.05Zm.18.17Z"/><path class="cls-2" d="M26.66,54.87Zm0-19.3h0v0Zm0,3.76h0Zm.83.18,0,0Zm.11,3.57V39.82a1.3,1.3,0,0,0-1-.24v5.26a15,15,0,0,0,.86-1.51Zm-.08,7.19h0Zm0,0h0Zm.05,1h0Zm-.67,5,0,.13Zm-.18-17h0Zm.05,0h0Zm0,0h0Zm.05,0h0Zm.25,0h0Zm.45,10.92h0Zm0,0h0Zm.07,1h0Zm-.73,5.17h0v0Z"/><path class="cls-1" d="M27.55,29.91v-.09h0v-.19h0v-.1h0l0,0,0,0,0,0h.19v.21a.7.7,0,0,0-.19.15.79.79,0,0,0-.12.15m.27,22h0Zm0,0h0Zm-1.12-18.1,0-.07ZM27.19,31v0Zm0,.13v0Zm0,.38v0Zm.07.73c0-.15,0-.31-.05-.47C27.24,31.92,27.25,32.08,27.27,32.23Zm.11.57a.29.29,0,0,1,0-.09A.29.29,0,0,0,27.38,32.8Zm0,.11a.36.36,0,0,1,0-.11A.36.36,0,0,0,27.4,32.91Zm.11.43c0-.07,0-.13-.05-.2S27.49,33.27,27.51,33.34Zm0,.1a.31.31,0,0,0,0-.08A.31.31,0,0,1,27.54,33.44Zm0,.1,0-.08Zm.23.62c0-.07-.05-.13-.07-.19S27.77,34.09,27.8,34.16Zm0,.09,0-.08Zm-1.4-3V29.32h0l0,0h0l0,0,0,0,0,0,0,0h.24l.12.12h0v0l0,0,0,0v0h0v.06l0,0v.36h0v0l0,.08.14.25,0,0,0,0,0-.06a.93.93,0,0,0-.05.29h0a.9.9,0,0,0,.26.63.7.7,0,0,0,.19.15V33.6a8.16,8.16,0,0,1-.45-2.91A.84.84,0,0,0,26.44,31.24Zm0,17.63,0,0Zm0,0,0,0Zm0,.67,0,0Zm.18,5.35Zm-.19-15.49h0Zm.19.2v5.26l-.22.33V39.65A.94.94,0,0,1,26.66,39.58Zm0-4h0l0,0Zm1,7.51V39.82l.17.11.05,0v2.6Zm0,6.39h0Zm0,0h0Zm0,0h0Zm-.05,1.77h0Zm-.82,5.39h0v0Zm1-4h0Zm0,0v0Zm0,0a.1.1,0,0,1,0,0A.1.1,0,0,0,27.86,52.72Zm-.06-.79h0Zm-.7-17.36L27,34.48Zm.09-3.33v0Zm0,.13a.45.45,0,0,0,0-.11A.45.45,0,0,1,27.2,31.37Zm0,.26a.49.49,0,0,0,0-.12A.49.49,0,0,1,27.21,31.63Zm0,.12s0-.08,0-.12S27.22,31.71,27.22,31.75Zm.09.71,0-.22Zm0,.11s0-.07,0-.1S27.32,32.54,27.33,32.57Zm0,.11s0-.06,0-.09S27.34,32.65,27.35,32.68Zm.08.34,0-.1m.24.83-.06-.18Zm0,.1,0-.08Zm-1.13,15h0Zm0,5.11-.1.16Zm0,0,0,0Zm0-14.56h0Zm1.28-8.44,0,0Zm-1,25.51Z"/><path class="cls-2" d="M28.36,31.07a.89.89,0,0,1,.39-.19h0a.72.72,0,0,0,.2-.49h0a.6.6,0,0,0-.06-.27h0L28.82,30h0l0,0-.08-.08a.65.65,0,0,0-.39-.13h0a.69.69,0,0,0-.47.2.71.71,0,0,0-.19.48h0a.71.71,0,0,0,.19.48.67.67,0,0,0,.47.2h.07m.85.94h0l0,0v-.33l0,0v-.27h0V31.3l-.05-.06a.57.57,0,0,0-.39-.15h0a.89.89,0,0,1-.39.19.48.48,0,0,0-.12.33h0a.53.53,0,0,0,.15.36.56.56,0,0,0,.37.15.61.61,0,0,1,.35-.11Zm0,.24a.8.8,0,0,1-.31.09.08.08,0,0,0,0,0,.51.51,0,0,0-.14.37h0a.51.51,0,0,0,.14.36.42.42,0,0,0,.31.15h0a.44.44,0,0,0,.32-.15l.06-.08h-.06V32.9l0,0v0l-.08-.08-.06-.13h0l-.08-.07v-.1l0,0Zm.28,1.28h0a.56.56,0,0,0-.56.58h0a.58.58,0,0,0,.16.41.56.56,0,0,0,.4.17h0a.55.55,0,0,0,.39-.16v-.11h0l0,0v0l0,0v0h0l0,0v-.08h0l-.05-.14v0h0v0h0l0,0v-.1l-.07-.1v-.22Z"/><path class="cls-2" d="M25.31,32h0"/><path class="cls-2" d="M31.28,35.71l-.07,0h0l0,0h0Z"/><polygon class="cls-2" points="21.9 33.9 21.9 33.88 21.89 33.88 21.87 33.94 21.88 33.93 21.9 33.91 21.9 33.9"/><polygon class="cls-2" points="21.93 33.79 21.93 33.73 21.93 33.74 21.9 33.8 21.9 33.82 21.9 33.84 21.93 33.84 21.93 33.79"/><polyline class="cls-2" points="22.92 25.51 22.92 25.51 22.92 25.51"/><rect class="cls-1" x="22.92" y="25.51" transform="translate(-9.5 14.34) rotate(-29.05)"/><path class="cls-2" d="M27,26.91h0v0h0l0,0v0h0l0,0h0v.08l.08,0,0,0h.32l.05,0h.06a.1.1,0,0,1,.05,0l.07,0h0l0,0h0l.08-.05H28a.5.5,0,0,1,.11-.13l0-.08v0h0l0,0h0v-.94h0v-.15l-.05-.07a.19.19,0,0,1-.06-.07l-.05,0,0,0h-.21l-.05,0h-.07l-.12.05,0,0,0,0h0a.3.3,0,0,1-.06.11s-.05.06-.08.07l-.05.05h0l0,0v.09H27.2l0,0,0,0h0v.07l0,0,0,.05h0l0,.06h0l-.05.08v.41s0,.06,0,.1a.6.6,0,0,1,0,.12Z"/><path class="cls-2" d="M22.77,25.2h0l.09.08V25a.56.56,0,0,0,.11-.2h0a.18.18,0,0,1,0-.06,0,0,0,0,0,0,0h0l0,0,.06-.06a.2.2,0,0,0,.08-.1h0s0,0,0,0h0l0,0,0-.05.05,0h0l0,0,.07,0h0l0,0h.11v0l0,0,.09,0h.23l.05,0,.1,0h.56l-.06,0-.06,0h0l-.07.07h0l-.07.07,0,0v0l0,0h0l0,0,0,0v0h0a.15.15,0,0,1,0,.06s0,0,0,0h0v.11h.13l.06,0a.12.12,0,0,0,.1,0h.22a.56.56,0,0,0,.16.07l0,0a.17.17,0,0,0,.12.05l.06.06.11.11h0l.1.1.05.07h0l0,.1h0l0,.05h0a.3.3,0,0,0,0,.1.24.24,0,0,1,0,.08v.1a.19.19,0,0,0,0,.08h0a0,0,0,0,1,0,0,.54.54,0,0,0,0,.15.31.31,0,0,0,0,.12v0h0l.07,0H26l.07,0h0l0,0L26.2,26h.08l0,0h.12l.06,0,.06,0,0,0s0,.06.05.08h0v0h0l0,.06s0,.05.05.08h0a.11.11,0,0,0,.05.09l0,0h0l0,.07h0v.1a.52.52,0,0,0,0,.11.06.06,0,0,0,0,.06,0,0,0,0,0,0,0V27h0v.09h0l.05.14v-.06h0l.08,0v.05h.47l.1,0h0v-.06h0s0,0,0,0h.07v0h.05l.07,0H28l0,.06,0,.07h0l0,0,0,0v.72l0,0,0,0c0,.06,0,.13,0,.13l0,0,.06,0,0,.05,0,0,.07,0h0l0,0h0a.28.28,0,0,0,.09.07l.06,0h0l0,0h0a.16.16,0,0,0,.1.05l.07.05h0l0,0h0l.1,0,.06,0,.06.06,0,0h0l.06,0,.07.06a.15.15,0,0,0,.07.05s0,0,0,0l0,0,.06.06,0,.1h0l0,.08h0l0,.07,0,.06a.19.19,0,0,0,0,.07h0a.15.15,0,0,1,0,.06h0a.14.14,0,0,0,0,.07v.14h0V30h0l0,0h0v0h0v.09l0,0h0v.07a.24.24,0,0,0,0,.08,0,0,0,0,1,0,0v.14a.29.29,0,0,0,0,.09h0a.17.17,0,0,1,0,.05h0a.19.19,0,0,0,0,.08,0,0,0,0,1,0,0v.14S30,31,30,31h0s0,0,0,0a.58.58,0,0,0,0,.1h0a.23.23,0,0,1,0,.07v.11h0a.15.15,0,0,0,.06.09s0,0,0,0a.14.14,0,0,0,0,.07h0a.08.08,0,0,1,0,0,.34.34,0,0,0,0,.12h0l0,.06h0a.46.46,0,0,1,0,.09.21.21,0,0,0,0,.1l0,0h0s0,.07.08.1h0l0,.06s0,.06.08.09h0a.19.19,0,0,0,0,.1s0,.06.08.06l.06,0h0s0,0,0,0a.14.14,0,0,0,.05.1h0a.46.46,0,0,1,0,.09v.07h0a.37.37,0,0,0,0,.09l0,0V35a.3.3,0,0,0,0,.11l0,.07a.29.29,0,0,0,0,.09.11.11,0,0,1,0,.05c0,.06.09.15.09.15l.06,0v.09h0l0,0,0,0h0l-.06,0v0h0v-.06h0v0h-.07l0,0,0,0,0,0,0,0,0,0h0v0l0,0,0,0,0,0h0l0,0-.07-.07h0l0,0h0v0h0l0,0h0l0,0h0l0,0h0v-.08l-.07-.07,0,0h0l0,0,0-.06v0h0l0-.07h0l0,0,0,0h0v-.1h0l0,0,0,0V34.1l0,0,0-.1h0l0-.06v-.1h0v0l-.06-.09v-.61l0,0,0,0h0l0-.06v-.05h0l0,0v-.07h0v0l0,0h0v0l0,0,0,0-.07-.06,0,0v0h0l-.06-.06h0v-.1h0l0,0v-.55h0l0,0v-.15h0v-.8h0v0l0-.06v-.06l0,0v-.05h0l0-.1v0a.54.54,0,0,0-.08-.17h0l-.06-.05v-.11h-.07l0,0h0l0,0h0l-.07-.07h0l0,0h0l-.07-.07h0l-.06-.06h0v-.05H28.8l-.06-.06h0l0,0h0v0l-.07-.07h0l0,0h0v0l0,0-.07-.07v0h0v0h0v0h-.07l0,0h-.79l0,0h-.06v.06h0l0,0h0v0h0s-.05.05-.05.09h0a.21.21,0,0,1,0,.06.5.5,0,0,0,0,.12h0a.53.53,0,0,0,0-.17s0-.08,0-.09-.12-.21-.12-.21h0L27,29l0,0h-.41a1,1,0,0,1-.15.1h0a.74.74,0,0,0-.15.19.46.46,0,0,1-.07.1c0,.05-.08.1-.08.13a.41.41,0,0,1,0,.07h0a.21.21,0,0,0-.05.11.14.14,0,0,1,0,.06.22.22,0,0,0-.05.12l0,.06a.41.41,0,0,0,0,.12l0,.06a.3.3,0,0,0,0,.11v.11h0a.35.35,0,0,0,0,.06.31.31,0,0,0,0,.08l0,0h0a.24.24,0,0,0,0,.08V31h0v0s0,.05,0,.08v.2a.29.29,0,0,0,0,.16l0,0h0a.18.18,0,0,0,0,.09l0,.09-.07.1s-.07.07-.08.12l-.06.1h0s-.05,0-.06.07l-.06.09v0h0s0,0-.06.07l0,.05s0,0,0,0a.12.12,0,0,0-.13.09s0,0,0,0l-.13.1h0l-.07.07-.07.07h0v0s0,0,0,0h0s-.06.05-.07.09l0,.06,0,0,0,0h0v0l0,.11h0a.18.18,0,0,0,0,.07h0l0,0a.42.42,0,0,0-.07.13l-.06.06,0,0v.09a.31.31,0,0,1,0,.08.41.41,0,0,0,0,.1v.2l0,.06h0v.41a0,0,0,0,0,0,0,.15.15,0,0,0,0,.07h0a0,0,0,0,1,0,0,.14.14,0,0,0,0,.07l0,.06h0a0,0,0,0,1,0,0h0s0,0,0,0l0,0h0v0l0,.1,0,.06-.06.06,0,0h0v.06a.14.14,0,0,0,0,.07l0,0h0a.24.24,0,0,0-.06.08l-.06.06h0v0h0l0,0h0l0,.07,0,.07h-.06l0,0,0,.07,0,.07h0l0,0h0l0,.08h0v0L23,36l-.06.07,0,0v.08h0l0,0,0,0v.15h0l0-.05v-.09h0l0-.09v-.57h0a.24.24,0,0,1,0-.08.31.31,0,0,0,0-.08.5.5,0,0,0,0-.18L23,35a.6.6,0,0,0,.08-.2.38.38,0,0,1,.06-.14h0l0-.1.06-.09.08-.12h0a.58.58,0,0,1,.06-.15l.06-.06,0,0V34l0-.09,0-.06a.27.27,0,0,0,.08-.14h0v0a.19.19,0,0,0,0-.08l0-.08h0l0-.11,0-.06,0,0h0v-.05l0-.09,0,0,0,0V33h0v-.19a.66.66,0,0,0,0-.15v-.1l0-.1h0V32.4h0l0,0h0v0s.09-.45-.14-.12l-.13.14,0,0,0,0h0l0,0,0,0h0l0,0,0,0,0,0h0l0,0,0,0,0,0h-.07v.06h0l-.05,0h-.07l0,0h0l0,0,0,.05h0l0,0-.05,0H23l0,0-.05,0h-.06l0,0h0l-.07,0h0l0,0h0l0,0,0,0h0l-.07,0h0l0,0h0l0,0,0,0,0,0,0,0,0,0,0,0,0,0h-.06v.06h0l0,0h0l0,.07,0,0,0,0,0,0h0v0h0v-.17l0-.1,0-.06v0h0v-.08l0,0v-.4h0l0,0h0v-.23l0-.06h0v-.19l0,0,0,0v-.22l0-.06h0v-.1l0-.06h0v-.05l0,0,0,0v-.05l0-.08,0,0h0l0-.07h0v-.07l.06-.05h0l0,0h0v-.05l0,0,.05-.05h.05v0l0-.07h0l0,0,0,0h0l0-.06,0,0,.06,0h0l0,0,.14-.09a.38.38,0,0,0,.12,0h0l.06,0h0l.07,0s0,0,.11-.05h0v0h0a.54.54,0,0,1,.16-.1h0l.19-.15h0S24,30.08,24,30l0-.08a.45.45,0,0,0,.06-.12l0-.18h0v-.21s0-.23,0-.23h0l0,0,.1-.17.11-.14h0c0-.06,0-.07,0-.07a.11.11,0,0,0,.06-.06,1.37,1.37,0,0,0,.15-.18h0v0l.11,0h0a.18.18,0,0,0,.05-.08.9.9,0,0,1,.07-.11h0l.06-.09a.22.22,0,0,0,.07-.09.61.61,0,0,1,.07-.1.16.16,0,0,0,.05-.1v-.08s0,0,.05-.08a.36.36,0,0,0,.06-.13s0-.05,0-.06l0-.05v0h0s.09-.11.09-.11h0v0l0-.1v-.05l0,0-.07,0H24.24l-.08,0a.15.15,0,0,0-.16.1l-.1.1h0l-.07.09,0,0,0,0v0s0,0-.07.11h0v0h0l0,0s0,.07,0,.1h0l0,0a.33.33,0,0,0,0,.12l-.09.13h0v0h0l0,0a.09.09,0,0,0-.05.08l0,.1h0s0,0,0,0h0s-.07.05-.08.09l0,.06h0l0,.09-.06.06h0l0,.06-.06.06h0l0,.07h0s0,0,0,0a.26.26,0,0,0-.1.07l-.05.06-.07,0h0l0,0v0l-.07,0h0v0l0,.07h0v0s0,0,0,0a.27.27,0,0,0-.08.07l-.09.1,0,0v0h0l0,0h0s-.06.05-.07.08l-.06.06v0s0,0,0,0h0v-.44a.24.24,0,0,1,0-.08s0-.06,0-.1h0a1.15,1.15,0,0,1,0-.16h0v0a.42.42,0,0,1,0-.13h0l0-.1h0l0,0v-.06l0-.07h0l0-.07v0h0l0-.06h0l.06-.11.05,0h0l.05-.1.07,0a.38.38,0,0,0,.11-.11.68.68,0,0,1,.12-.12.8.8,0,0,0,.18-.15h0l.06-.06h0a.71.71,0,0,0,.15-.15l0-.08h0s0-.07,0-.07h0l.09-.09.06-.05h0l.06-.09h0a.64.64,0,0,0,.06-.14h0a1.3,1.3,0,0,1,.06-.12h0v-.12l0-.08h0v-.71a.41.41,0,0,0,0-.12.45.45,0,0,1,0-.08h0a.52.52,0,0,0,0-.11.18.18,0,0,1,0-.06v-.09h0l0-.05v0h0a.37.37,0,0,0,0-.09.1.1,0,0,0,0-.05V25h-.14V25h0l-.06,0h-.05v.06h0a0,0,0,0,0,0,0h0v0l0,.05,0,0h0l0,0h0a.16.16,0,0,0-.09,0h0a.12.12,0,0,0,0,0l-.05,0a.12.12,0,0,0-.05,0l0,0h0s0,0,0,0a.11.11,0,0,0,0-.08.14.14,0,0,1,0-.07h0a.2.2,0,0,0,0-.07.13.13,0,0,0-.05-.06"/><path class="cls-2" d="M28.34,26.22h.55l.05,0H29s.06.06.09.06h.08l.06,0,.06,0,.05.06h0l0,0h.09l0,0,.05,0h0l.06,0h.06l0,0h.12c.06,0,.08,0,.14,0h.4v.09l0,.05v0l0,0,0,0s0,.11-.08.11v0l0,0-.06.06s-.05.06-.08.06,0,0,0,.05H30v0l0,0h0l-.06,0h-.06l0,0h0l-.12,0h-.14l-.11,0h-.26s.08,0,.11.06.06,0,.09,0l0,0,0,0s.05.08.05.11l0,0,0,0,0,0a.36.36,0,0,0,.06.11v.09s0,.08,0,.11v.09l0,.05c0,.06.09.09.09.15l.08,0v0l0,0,.12,0v0H30c.06,0,.08,0,.14,0h.09a.17.17,0,0,1,.11,0l.06,0,0,0,.05,0,0,0a.44.44,0,0,0,.12.06l0,.05,0,.06v0l0,0,0,0s0,.08.09.14v.06s.05.05.05.08l0,.06,0,.06v.05l0,0v.09l0,0v.2l0,.2s0,.08,0,.11,0,.06,0,.09,0,.08,0,.11l0,.06v0s.06.08.06.11a.14.14,0,0,0,0,.11s0,.06,0,.09l0,.11.09.12c0,.06.05.08.08.14l.09.11.06.1v1.2l-.06,0-.12,0-.05-.05H31.4l-.06-.06h0s-.11-.09-.14-.09-.06-.08-.08-.08-.09-.06-.09-.06h0l0,0,0,0a.38.38,0,0,0-.11-.05l0-.06,0,0,0-.06s0-.05-.09-.08l0-.06,0-.06,0,0,0,0v0s-.06-.09-.06-.12h0l0-.05,0-.06c0-.06,0-.14-.08-.14a.3.3,0,0,0,0-.09v-.08l0,0,0,0s0-.12-.06-.12v-.08l0-.06v0l0,0v0s0-.09-.06-.09v0c0-.06,0-.11,0-.17l0,0v0s0,0,0,0a.51.51,0,0,0,0-.09h0a.11.11,0,0,1,0-.05h0l0-.06V29.7a.24.24,0,0,0,0-.08l0,0h0a.29.29,0,0,0,0-.09.35.35,0,0,0,0-.06h0l0-.07,0-.07h0l0-.07,0-.1v0h0L29.56,29l0,0a.13.13,0,0,0-.06,0h0a.05.05,0,0,1,0,0l-.07-.07h0l-.06,0,0,0h0l-.07-.07h0l-.07,0h0l-.1,0,0,0h0a.18.18,0,0,0-.14-.09l0,0-.09,0-.06,0h0l0,0h0a.28.28,0,0,0-.09-.07l0,0,0-.06v0h0l-.05,0a.58.58,0,0,1,0-.1v0h0l0,0v-.69h0l0-.07h0l0,0,0-.06h0l0-.07v0l.1-.1h0v0l0-.06,0,0a.14.14,0,0,0,.05-.09h0v-.49Z"/><path class="cls-2" d="M20.1,35.25v-.12h0l0,0h0V35h0a.15.15,0,0,1,.06-.07.37.37,0,0,0,0-.09v-.07l0,0h0v0a.25.25,0,0,1,0-.13.14.14,0,0,0,0-.07v0h0a.33.33,0,0,0,0-.06.2.2,0,0,1,.06-.11l0,0v0l0,0,.05-.05h0s.07-.07.07-.11v0l0,0,.06,0v0h0v0h0a.1.1,0,0,1,0-.08h0a.38.38,0,0,1,.06-.13v0h0l0-.1V32.27s0-.1,0-.15a.69.69,0,0,0,0-.13v0h0l0,0,0,0a.29.29,0,0,1,.08-.13h0s0-.12,0-.14l0,0h0l0,0h0l0-.05,0-.06.06,0s0,0,.07,0h0V31.3h.06l0,0s0,0,0,0h0v0h.05l.07-.11v0h0l0-.05a.28.28,0,0,0,.05-.09v0l0,0h0a.09.09,0,0,0,0-.07h0a.33.33,0,0,1,0-.14l0,0h0a.66.66,0,0,0,0-.24h0s0-.1,0-.12v-.93a.3.3,0,0,1,0-.1.22.22,0,0,0,0-.08h0a1.62,1.62,0,0,1,0-.18h0v0h0l0-.14,0-.12h0v0h0v0l.05-.08,0-.08h0l0,0,0,0h0l.05-.11h0l0,0,.06-.11h0l.08,0h0a.29.29,0,0,0,.08-.08.62.62,0,0,1,.14-.14h0a.44.44,0,0,0,.15-.13h0l.07-.06h0c.05,0,.11-.09.12-.12h0s0,0,0-.06a.31.31,0,0,1,.08-.11l.08-.08.06-.06.05-.08.05-.12h0l.06-.12h0v-.09h0l0-.07v-.71l0-.08a.41.41,0,0,1,0-.12h0a.31.31,0,0,0,0-.08s0-.07,0-.09v-.06h0l0-.05h0v-.06h0a.43.43,0,0,1,0-.05h0v0l0,0v.08h0s0,0,0,0v0h0l0,0,0,0h0l0,0v0H23l0,0,0,0h-.06v0l0,0-.05,0,0,0,0,0h0l0,0h0l0,0h0l-.06,0h0v0l-.13.1h0v0l0,0-.05,0,0,0h0l0,0,0,0h0l0,0,0,0h0l-.06.06h0v0h0a.3.3,0,0,0,0,.11h0a.18.18,0,0,1,0,.09h0l0,0h0a.24.24,0,0,1,0,.08s0,0,0,0h0a.19.19,0,0,1,0,.07s0,0,0,0v.14s0,.07,0,.09h0a.14.14,0,0,0,0,.06V27h0A.35.35,0,0,1,22,27l0,0v0l0,0h0l0,0s0,0,0,0v.06h0s0,0,0,0a.15.15,0,0,1-.09,0l-.08.05h0l-.05,0-.05,0v0h0l0,0h0l0,0,0,0v0h0l0,0v0h0l0,0a.25.25,0,0,1,0,.07.12.12,0,0,1,0,0s0,0,0,0v0h0v.94h0a.69.69,0,0,1,0,.13s0,.08,0,.1h0a.53.53,0,0,1,0,.12.41.41,0,0,0,0,.08h0a.13.13,0,0,1,0,.08.14.14,0,0,0,0,.06.24.24,0,0,1,0,.08.06.06,0,0,0,0,0v0l0,0,0,0h0a.27.27,0,0,1-.06.12s0,0-.06.06a.12.12,0,0,1,0,.08l0,.06,0,.07,0,0v0h0l-.05.06h0v0h0a.19.19,0,0,1,0,.07s0,0,0,0h0a.14.14,0,0,1,0,.07v0a.47.47,0,0,1,0,.09h0l0,.05v1.37a.34.34,0,0,1,0,.1.17.17,0,0,0,0,.07v0l0,0-.05,0a.24.24,0,0,1,0,.08.17.17,0,0,0,0,.07v0l0,0,0,0,0,.06h0l0,0h0l0,0h0v0a.24.24,0,0,0-.05.1v0l0,0,0,0v0h0v0h0l0,0a.14.14,0,0,1,0,.06v0h0a.12.12,0,0,1,0,.08h0a.14.14,0,0,1,0,.07h0v0a.14.14,0,0,1,0,.06v0h0v.09h0a.14.14,0,0,1,0,.07h0v.09h0l0,0v.18l0,0h0v.76l0,.07h0v.06h.06v.1l0,0h0v.16a.14.14,0,0,1,0,.07l0,.05h0V35h0l0,0v.05h0l0,0h0s0,0,0,.05a.15.15,0,0,1,.08,0"/><path class="cls-2" d="M61.77,54.89Zm0-19.3Zm0,3.75h0Zm-.84.18h0Zm-.1,3.58V39.83a1.39,1.39,0,0,1,1-.24v5.26a12.5,12.5,0,0,1-.86-1.51Zm.07,7.19h0Zm0,0h0Zm0,1h0Zm.64,4.89s0,.06,0,.1S61.49,56.18,61.48,56.15Zm.21-16.81h0Zm0,0h0Zm0,0h0Zm-.05,0h0Zm-.25,0h0Zm-.46,10.92h0Zm0,0h0Zm-.08,1h0Zm.73,5.15h0a.85.85,0,0,0,0-.17A.85.85,0,0,1,61.54,56.42Z"/><path class="cls-1" d="M60.88,29.91v-.09h0v-.19h0v-.1h0l0,0,0,0,0,0h-.19v.21a.9.9,0,0,1,.19.15l.12.15m-.28,22h0Zm0,0h0Zm1.13-18.09,0-.07ZM61.24,31a.49.49,0,0,0,0-.12A.49.49,0,0,1,61.24,31Zm0,.13v0Zm0,.39a.49.49,0,0,0,0-.12A.49.49,0,0,1,61.22,31.52Zm-.07.73.06-.48Zm-.1.57,0-.1Zm0,.11a.43.43,0,0,1,0-.11A.43.43,0,0,0,61,32.93Zm-.11.42a1.8,1.8,0,0,1,0-.19A1.8,1.8,0,0,0,60.92,33.35Zm0,.11,0-.09Zm0,.1,0-.08Zm-.22.61L60.7,34Zm0,.1,0-.08Zm1.39-3V29.32h0l0,0h0l0,0,0,0,0,0,0,0h-.24l-.12.12h0l0,0v0l0,0v0h0v.36l0,0v.06h0v0l0,.08-.14.25,0,0s0,0,0,0l0-.06a.93.93,0,0,1,.05.29h0a.92.92,0,0,1-.45.78v2.44A8,8,0,0,0,61,30.7.84.84,0,0,1,62,31.25Zm0,17.64,0,0Zm0,0,0,0Zm0,.67,0,0Zm-.18,5.35ZM62,39.4h0Zm-.18.19v5.26l.21.34V39.67A.9.9,0,0,0,61.77,39.59Zm0-4h0v0Zm-1,7.51V39.83l-.17.12,0,0v2.59Zm0,6.38h0Zm0,0h0Zm0,0h0Zm.05,1.78h0Zm.81,5.37h0v0Zm-1-4h0Zm0,0h0Zm0,.06a.21.21,0,0,0,0-.06A.21.21,0,0,1,60.57,52.74Zm0-.8h0Zm.71-17.35.06-.1Zm-.1-3.33a.41.41,0,0,1,0-.11A.41.41,0,0,0,61.23,31.26Zm0,.13v0Zm0,.26v0Zm0,.11a.45.45,0,0,1,0-.11A.45.45,0,0,0,61.21,31.76Zm-.09.72,0-.23Zm0,.11,0-.1Zm0,.1v0ZM61,33l0-.11m-.25.83a1.27,1.27,0,0,0,.06-.18A1.27,1.27,0,0,1,60.78,33.76Zm0,.11,0-.08Zm1.13,15,0,0Zm0,5.12.09.16Zm0,0,0,0Zm0-14.56h0Zm-1.28-8.46,0,0Zm1,25.51Z"/><path class="cls-2" d="M60.07,31.07a.93.93,0,0,0-.4-.19h0a.68.68,0,0,1-.2-.49h0a.6.6,0,0,1,.06-.27h0l.07-.14h0l0,0,.09-.08a.65.65,0,0,1,.38-.13h0a.66.66,0,0,1,.47.2.72.72,0,0,1,.2.48h0a.72.72,0,0,1-.2.48.66.66,0,0,1-.47.2h-.06m-.85.94h0l0,0v-.33l0,0v-.27h0V31.3l0-.06a.59.59,0,0,1,.39-.15h0a.91.91,0,0,0,.38.19.49.49,0,0,1,.13.33h0a.5.5,0,0,1-.16.36.52.52,0,0,1-.37.15.6.6,0,0,0-.34-.11Zm0,.24a.8.8,0,0,0,.31.09s0,0,0,0a.51.51,0,0,1,.14.37h0a.51.51,0,0,1-.14.36.42.42,0,0,1-.31.15h0a.42.42,0,0,1-.32-.15L58.84,33h0V32.9l0,0v0l.08-.08.06-.13h0l.07-.07v-.1l0,0Zm-.28,1.28h0a.58.58,0,0,1,.56.58h0a.55.55,0,0,1-.17.41.52.52,0,0,1-.39.17h0a.58.58,0,0,1-.4-.16v-.11h0v-.05l0,0v0h0v-.12h0l0-.14,0,0h0v0h0l0,0v-.1l.07-.1v-.22Z"/><path class="cls-2" d="M63.12,32h0m-6,3.73.06,0h0l0,0h0Zm9.38-1.82h0l0,.06h0l0,0Zm0-.1v-.06h0l0,.06v0h0Zm-1-8.28Zm0,0Zm-4.11,1.4h0v0h0l0,0v0h0l0,0h0v.08l-.08,0,0,0h-.32l-.06,0h0a.09.09,0,0,0-.06,0l-.06,0h0v0h0L60.51,27h-.1a.81.81,0,0,0-.11-.13l0-.08,0,0h0v0h0v-.92l0,0h0v-.15a.22.22,0,0,0,.06-.07l.06-.07,0,0,0,0h.21l0,0h.07l.12.05,0,0,0,0h0a.3.3,0,0,0,.06.11.18.18,0,0,0,.08.07l.05.05h0l0,0v.09h0l0,0,0,0h0V26l0,0,0,0,0,.05,0,.06h0l0,.08v.41a.58.58,0,0,1,0,.1s0,.09,0,.12Zm4.25-1.71h0l-.08.08V25a.56.56,0,0,1-.11-.2h0l0-.06v0h0v0l-.06-.06a.2.2,0,0,1-.08-.1h0s0,0,0,0h0v0l0-.05,0,0h0l0,0-.06,0h0l0,0h-.11l0,0,0,0-.09,0h-.23l-.06,0-.09,0h-.56l0,0,.07,0h0l.07.07h0l.07.07v.06l0,0,0,0v0h0a.21.21,0,0,0,0,.06s0,0,0,0h0v.11h-.13l-.07,0s-.06,0-.09,0h-.23a.41.41,0,0,1-.15.07s0,0,0,0a.16.16,0,0,1-.12.05l0,.06-.11.11h0l-.1.1-.06.07h0l0,.1h0l0,.05h0a.3.3,0,0,1,0,.1h0a.24.24,0,0,0,0,.08v.1a.19.19,0,0,1,0,.08h0a0,0,0,0,0,0,0,.54.54,0,0,1,0,.15.31.31,0,0,1,0,.12v0h0l-.07,0H62.4l-.07,0h0l0,0L62.22,26h-.07l-.06,0H62l0,0-.06,0,0,0a.22.22,0,0,1-.05.08h0v0h0l0,.06s0,.05,0,.08h0a.11.11,0,0,1,0,.09l0,0h0l0,.07h0v.1a.52.52,0,0,1,0,.11V27h0v.09h0l0,.14v-.06h0l-.08,0v.05h-.47l-.11,0h0v-.06h0s0,0,0,0H60.6v0h-.05l-.07,0h-.06l0,.06h0l0,.07h0l0,0,0,0v.72l0,0,0,0a.68.68,0,0,1,0,.13l0,0-.05,0,0,.05,0,0-.07,0h0l0,0h0a.28.28,0,0,1-.09.07l-.07,0h0l0,0h0a.19.19,0,0,1-.1.05s0,0-.07.05h0l0,0h0l-.1,0-.06,0-.07.06,0,0h0l-.07,0-.06.06L59,29s0,0,0,0l0,0-.07.06,0,.1h0l0,.08,0,.07,0,.06s0,.05,0,.07h0a.21.21,0,0,0,0,.06h0a.14.14,0,0,1,0,.07,0,0,0,0,0,0,0v.11h0V30h0l0,0h0v0h0v.09l0,0h0v.07a.24.24,0,0,1,0,.08l0,0v.14a.29.29,0,0,1,0,.09.43.43,0,0,1,0,.05h0a.19.19,0,0,1,0,.08l0,0v.14a.24.24,0,0,1,0,.08h0a0,0,0,0,0,0,0,.58.58,0,0,1,0,.1h0a.41.41,0,0,0,0,.07v.11h0a.11.11,0,0,1,0,.09s0,0,0,0a.14.14,0,0,1,0,.07h0a.08.08,0,0,0,0,0,.24.24,0,0,1,0,.12h0l0,.06h0a.46.46,0,0,0,0,.09.16.16,0,0,1,0,.1l0,0h0s0,.07-.08.1h0l0,.06s0,.06-.07.09h0a.19.19,0,0,1,0,.1s0,.06-.08.06l-.06,0h0s0,0,0,0h0a.14.14,0,0,1,0,.1h0a.46.46,0,0,0,0,.09v.07h0a.47.47,0,0,1,0,.09.43.43,0,0,1,0,0V35a.3.3,0,0,1,0,.11.17.17,0,0,0,0,.07.29.29,0,0,1,0,.09l0,.05c0,.06-.08.15-.08.15l-.06,0v.09h0v0l0,0h0l.07,0v0h0v-.06h0v0h.07v0l0,0,0,0,0,0,0,0h0v0l0,0,0,0,0,0h0l0,0,.07-.07h0l0,0h0v0h0l0,0h0l0,0,0,0h0v-.06l0,0,.07-.07,0,0h0l0,0,0-.06v0h0l0-.07h0l0,0,0,0h0v-.1h0l0,0,0,0v-.12l0,0,0,0,0-.1h0l0-.06v-.1h0v0l.06-.09v-.61l0,0,0,0h0l0-.06v-.05h0l0,0v-.07h0l0,0,0,0h0v0h0l0,0,.07-.06,0,0v0h0l.05-.06h0v-.1h0l0,0v-.55h0l0,0,0,0v-.13h0v-.8h0v0l0-.06v0l0,0,0,0v-.05h0l0-.1v0a.52.52,0,0,1,.09-.17h0l.06-.05v-.11h.06l0,0h0l0,0h0l.08-.07h0l0,0h0l.07-.07h0l.05-.06h0v-.05h.07l.06-.06h0l0,0h0v0l.07-.07h0l0,0h0v0l.07-.07,0,0h0v0h0v0h.07l0,0h.78l0,0H61v.06h0l0,0h0v0h0s.05.05.05.09h0s0,0,0,.06a.5.5,0,0,1,0,.12h0a1.09,1.09,0,0,1,0-.17s0-.08,0-.09.12-.21.12-.21h0l.18-.18,0,0h.41l.14.1h0a.6.6,0,0,1,.16.19.46.46,0,0,0,.07.1.28.28,0,0,1,.07.13s0,0,0,.07a.3.3,0,0,1,0,.11s0,0,0,.06a.21.21,0,0,1,0,.12.3.3,0,0,1,0,.06.51.51,0,0,1,.05.12.28.28,0,0,0,0,.06.3.3,0,0,1,0,.11v.11h0a.18.18,0,0,0,0,.06.31.31,0,0,1,0,.08s0,0,0,0h0a.13.13,0,0,1,0,.08V31h0a0,0,0,0,0,0,0,.24.24,0,0,1,0,.08v.2a.23.23,0,0,1,0,.16l0,0h0a.18.18,0,0,1,0,.09l0,.09.06.1s.08.07.09.12l.06.1h0s.06,0,.07.07l.06.09v0h0s0,0,.06.07l0,.05s0,0,0,0,.1,0,.13.09,0,0,0,0l.14.1h0l.07.07.07.07h0v0s0,0,0,0h0s.07.05.08.09l0,.06,0,0,.05,0h0v0l0,.11h0a.18.18,0,0,1,.05.07h0l0,0a.31.31,0,0,1,.08.13l.06.06,0,0v.09a.28.28,0,0,0,0,.08.58.58,0,0,1,0,.1v.2l0,.06h0v.44a.14.14,0,0,1,0,.07h0l0,0a.64.64,0,0,1,0,.07l0,.06h0l0,0s0,0,0,0l0,0h0v0l0,.1,0,.06.06.06,0,0h0v0l0,0a.14.14,0,0,1,0,.07l0,0h0a.24.24,0,0,1,.06.08l.06.06h0v0h0l0,0h0l0,.07,0,.07h.06v0l0,.07h0l0,.07h0l0,0h0l0,.08h0v0l0,.05.07.07h0l0,0,0,0v.06h0l0,0v.17h0l0-.05v-.09h0l0-.09v-.57h0a.22.22,0,0,0,0-.08.31.31,0,0,1,0-.08.59.59,0,0,1,0-.18L65.46,35a.93.93,0,0,1-.07-.2.38.38,0,0,0-.06-.14h0l0-.1-.06-.09a.44.44,0,0,1-.08-.12h0a1.56,1.56,0,0,0-.06-.15L65,34.08l0,0V34l0-.09,0-.06a.27.27,0,0,1-.08-.14h0v0a.11.11,0,0,1,0-.08l0-.08h0l0-.11,0-.06,0,0h0v-.05l0-.09,0,0V33h0v-.19s0-.11,0-.15v-.1l0-.1h0V32.4h0l0,0h0v0s-.09-.45.13-.12l.14.14,0,0v0h0v0l0,0h0l0,0,0,0,0,0h0l0,0,0,0,0,0H65v.06h0l0,0h.06l0,0h0v0l0,.05h0l0,0,0,0h.06l0,0,0,0h.06l0,0h0l.07,0h0l0,0h0v0l0,0h0l.07,0h0v0h0l0,0,0,0,0,0,0,0,0,0,0,0,0,0h.07v.06h0l0,0h0l0,.07,0,0h0l0,0,0,0h0v0h0v-.17l0-.1,0-.06v0h0v-.08l0,0v-.4h0l0,0h0v-.23l0-.06h0v-.19l0,0v-.24l0-.06h0v-.1l0-.06h0v-.05l0,0,0,0v-.05l0-.08,0,0h0l0-.07h0v-.07L66,31.34h0l0,0h0v-.05l0,0-.05-.05h0l0,0,0-.07h-.05v0l0,0h0l0-.06,0,0-.07,0h0l0,0-.15-.09a.34.34,0,0,1-.11,0h0l-.06,0h0l-.08,0s0,0-.1-.05h0l0,0h0a.54.54,0,0,0-.16-.1h0l-.18-.15h0s-.19-.19-.19-.25h0l-.05-.08a.27.27,0,0,1-.06-.12l0-.18h0v-.21s0-.23,0-.23h0l0,0L64.08,29l-.1-.14h0c0-.06,0-.07,0-.07h0a.13.13,0,0,1-.07-.06s-.14-.18-.14-.18h0v0l-.11,0h0l-.05-.08a.3.3,0,0,0-.06-.11h0l-.06-.09a.22.22,0,0,1-.07-.09l-.08-.1a.15.15,0,0,1,0-.1.25.25,0,0,1,0-.08l0-.08a.36.36,0,0,1-.06-.13v-.06l0-.05v0h0s-.09-.11-.09-.11h0l0-.1v-.05l0,0,.07,0h1.15l.08,0s.1,0,.15.1l.1.1h0l.06.09.06,0,0,0v0s0,0,.06.11h0v0h0l0,0h0a.26.26,0,0,1,0,.1l0,0a.22.22,0,0,1,0,.12l.1.13h0v0h0l0,0s0,0,0,.08l0,.1h0s0,0,0,0,.07.05.07.09l0,.06h0l0,.09.06.06h0l0,.06.07.06h0l0,.07h0s0,0,0,0a.26.26,0,0,1,.1.07l0,.06.06,0h0l0,0,0,0v0l.07,0h0v0l0,.07h0v0s0,0,0,0a.16.16,0,0,1,.07.07l.1.1v0h0l0,0h0l.07.08.06.06v0s0,0,0,0h0v-.44a.22.22,0,0,0,0-.08.3.3,0,0,1,0-.1h0a1,1,0,0,0,0-.16v0h0a1.3,1.3,0,0,0,0-.13h0l0-.1h0l0,0v-.06l0-.07h0l0-.07,0,0h0l0-.06,0-.11,0,0h0l0-.1-.07,0a.4.4,0,0,1-.12-.11.43.43,0,0,0-.11-.12.63.63,0,0,1-.18-.15h0l-.07-.06h0a1,1,0,0,1-.14-.15l-.05-.08h0s0-.07,0-.07h0l-.08-.09L65,27.12h0L65,27h0l-.06-.14h0l0-.12h0v-.12l0-.08h0v-.71a.54.54,0,0,1,0-.12.45.45,0,0,0,0-.08h0a.52.52,0,0,1,0-.11.35.35,0,0,1,0-.06v-.09h0l0-.05v0h0a.37.37,0,0,1,0-.09.1.1,0,0,1,0-.05V25h.13V25h0l.06,0h.06v.06h0a0,0,0,0,1,0,0h0l0,0,0,.05,0,0h0l0,0h0a.11.11,0,0,1,.08,0h0a.12.12,0,0,1,.05,0l0,0,0,0,0,0h0a0,0,0,0,0,0,0,.19.19,0,0,1,0-.08.14.14,0,0,0,0-.07h0a.25.25,0,0,1,0-.07S65.64,25.21,65.65,25.2Zm-5.57,1h-.54l-.06,0h0s-.06.06-.09.06h-.09l0,0-.06,0-.06.06h0l0,0h-.09l0,0-.06,0h0l-.06,0h-.06l0,0h-.11c-.06,0-.09,0-.14,0H58v.09l0,.05v0l0,0,0,0s0,.11.09.11v0l0,0,.05.06s.06.06.09.06,0,0,0,.05h.06v0l0,0h0l.06,0h0l0,0h.06l.11,0H59l.11,0h.26s-.09,0-.12.06,0,0-.08,0l0,0,0,0s-.06.08-.06.11l0,0,0,0,0,0a.36.36,0,0,1-.06.11v.09s0,.08,0,.11v.09l0,.05c0,.06-.08.09-.08.15l-.09,0v0l0,0-.11,0v0H58.4c-.06,0-.09,0-.14,0h-.09a.14.14,0,0,0-.11,0l-.06,0,0,0-.06,0,0,0a.36.36,0,0,1-.11.06l0,.05-.06.06v0l0,0,0,0s0,.08-.09.14v.06s-.06.05-.06.08l0,.06,0,.06v.05l0,0v.09l0,0v.2l0,.2s0,.08,0,.11,0,.06,0,.09,0,.08,0,.11l0,.06v0s-.06.08-.06.11a.12.12,0,0,1-.06.11s0,.06,0,.09l0,.11-.09.12c0,.06-.06.08-.08.14L56.8,31a.61.61,0,0,1-.07.1v1.2l.07,0,.11,0,.06-.05H57l.06-.06h0s.12-.09.15-.09a.11.11,0,0,1,.08-.08s.09-.06.09-.06h0l0,0,0,0a.48.48,0,0,1,.12-.05l0-.06,0,0,.06-.06s0-.05.09-.08l0-.06,0-.06,0,0,0,0v0s.06-.09.06-.12h0l0-.05,0-.06c0-.06,0-.14.09-.14a.3.3,0,0,1,0-.09v-.08l0,0,0,0s0-.12.05-.12v-.08l0-.06v0l0,0v0s0-.09.06-.09v0c0-.06,0-.11,0-.17l0,0v0s0,0,0,0h0a.51.51,0,0,1,0-.09h0a.43.43,0,0,1,0-.05h0l0-.06V29.7a.24.24,0,0,1,0-.08v0h0a.29.29,0,0,1,0-.09.39.39,0,0,0,0-.06h0l0-.07,0-.07h0l0-.07,0-.1v0h0l.07-.07,0,0,.07,0h0l0,0,.07-.07h0l.06,0,0,0h0l.07-.07h0l.07,0h0l.1,0,0,0h0c.05-.05.09-.09.15-.09l0,0,.08,0,.07,0h0s0,0,0,0h0a.23.23,0,0,1,.1-.07l0,0,0-.06v0h0l.05,0,0-.1v0h0l0,0v-.69h0l0-.07h0l0,0,0-.06h0l0-.07v0l-.1-.1h0v0l0-.06s0,0,0,0a.41.41,0,0,1-.05-.09h0v-.49Zm8.25,9v-.12h0v0h0V35h0a.18.18,0,0,0-.05-.07.94.94,0,0,0,0-.09v-.09h0v0a.25.25,0,0,0,0-.13.14.14,0,0,1,0-.07v0h0a.11.11,0,0,1,0-.06s0-.09-.06-.11l0,0v0l0,0-.06-.05h0s-.07-.07-.07-.11v0l-.06,0,0,0h0v0h0a.1.1,0,0,0,0-.08h0a.35.35,0,0,0,0-.13v0h0l0-.1V32.27a.89.89,0,0,0,0-.15s0-.09,0-.13v0h0l0,0,0,0a.27.27,0,0,0-.07-.13h0s0-.12,0-.14l0,0h0l0,0h0l0-.05a.09.09,0,0,0,0-.06.1.1,0,0,0-.05,0s0,0-.07,0h0V31.3h0l0,0s0,0,0,0h0v0h0l-.07-.11,0,0h0a.1.1,0,0,0,0-.05.23.23,0,0,1,0-.09v0l0,0h0a.09.09,0,0,1,0-.07h0a.57.57,0,0,0,0-.14l0,0h0a.66.66,0,0,1,0-.24h0a.42.42,0,0,0,0-.12v-.93s0-.07,0-.1a.24.24,0,0,1,0-.08h0a.65.65,0,0,0,0-.18h0v0h0a.57.57,0,0,0,0-.14l0-.12h0v0h0v0l0-.08,0-.08h0l0,0,0,0-.06-.11h0l0,0L66,28h0l-.08,0h0a.29.29,0,0,1-.08-.08.92.92,0,0,0-.14-.14h0a.57.57,0,0,1-.16-.13h0l-.07-.06-.12-.12h0a.3.3,0,0,1,0-.06s0-.09-.09-.11l-.08-.08,0-.06L65,27a.67.67,0,0,1-.06-.12h0a.61.61,0,0,0,0-.12h0v-.09h0l0-.07v-.71a.45.45,0,0,0,0-.08.41.41,0,0,0,0-.12h0s0-.05,0-.08a.51.51,0,0,0,0-.09v-.06h0l0-.05h0v-.06h0a.11.11,0,0,1,0-.05h0v0a.05.05,0,0,1,0,0v.08h0a.06.06,0,0,0,0,0v0h0l0,0h0l0,0h0l0,0v0h.09l0,0v0h.07v0l0,0,0,0,0,0,0,0h0l0,0h0v0h0l.06,0h0l0,0,.13.1h0v0l0,0,0,0,0,0h0l0,0,0,0h0l0,0,0,0h0l.06.06h0v0h0a.3.3,0,0,1,0,.11h0a.18.18,0,0,0,0,.09h0l0,0h0s0,.05,0,.08a.08.08,0,0,1,0,0h0a.17.17,0,0,0,0,.07h0a.08.08,0,0,1,0,0v.14a.2.2,0,0,0,0,.09h0a.13.13,0,0,1,0,.06V27h0a.35.35,0,0,0,0,.08l0,0v0h0l0,0h0s0,0,0,0v.06h.06s0,0,0,0a.12.12,0,0,0,.08,0,.36.36,0,0,1,.09.05h0l.05,0,0,0,0,0h0l0,0h0l0,0,0,0v0h0l0,0v0h0l0,0a.25.25,0,0,0,0,.07.12.12,0,0,0,.05,0,0,0,0,0,0,0,0v0h0v.94h0s0,.08,0,.13a.58.58,0,0,1,0,.1h0a.27.27,0,0,0,0,.12.31.31,0,0,1,0,.08h0s0,.05,0,.08a.09.09,0,0,1,0,.06.24.24,0,0,0,0,.08s0,0,0,0v0l0,0,0,0h0a.24.24,0,0,0,0,.12l.06.06a.59.59,0,0,0,0,.08l0,.06.05.07,0,0v0h0l0,.06h0s0,0,0,0h0a.19.19,0,0,0,0,.07s0,0,0,0h0a.14.14,0,0,0,0,.07v0a.19.19,0,0,0,0,.09h0l0,.05v1.37a.36.36,0,0,0,0,.1.17.17,0,0,1,0,.07v0l0,0,0,0,0,.08,0,.07v0l0,0,0,0,0,.06h0l0,0h0l0,0h0l0,0a.21.21,0,0,1,0,.1v0l0,0,0,0v0h0v0h0l0,0a.14.14,0,0,0,0,.06v0a.12.12,0,0,0,0,.08h0a.14.14,0,0,0,0,.07v0a.14.14,0,0,0,0,.06v0h0v.09h0a.14.14,0,0,0,0,.07h0v.09h0l0,0v.2h0v.76l0,.07h0v.06h-.06v.1l0,0h0v.16a.14.14,0,0,0,0,.07l-.05.05h0V35h0v.07h0l0,0h0l0,.05S68.36,35.22,68.33,35.25Z"/><path class="cls-2" d="M45.81,67v-6.7c-.21,0-.42.05-.64.06V67l.64,0m5.45-8.82a4.68,4.68,0,0,0,1.29-.06l0-.06,0-.06h0l0-.06h0l0,0v0l0-.06h0l0-.06h0l0,0v0l0,0v-.09l0,0h0l0-.06v0l0-.06h0v-.08l0,0v0l0-.07h0c0-.09.05-.17.07-.25h0l.06-.26-.07.08h0A13.12,13.12,0,0,1,51.26,58.17Zm-3,1.54A3.86,3.86,0,0,0,52,59.55v0a7.32,7.32,0,0,1-2.59-.32A10.92,10.92,0,0,1,48.23,59.71Zm3.73.63,0-.07Zm-5.86-.1v.11a5,5,0,0,0,5.54.19,4,4,0,0,1,.16-.45A4.44,4.44,0,0,1,47.44,60,12.26,12.26,0,0,1,46.1,60.24ZM41,60a4.42,4.42,0,0,1-4.35.13c.06.15.11.3.16.45a5,5,0,0,0,5.53-.19v-.11A11.79,11.79,0,0,1,41,60Zm-2-.75a7.21,7.21,0,0,1-2.57.32l0,0a3.87,3.87,0,0,0,3.79.15A11.08,11.08,0,0,1,39,59.21Zm-3.68-2.66a2,2,0,0,0,.07.26h0c0,.08,0,.16.07.25h0l0,.07v0l0,0v0h0l0,.06v0l0,.06h0l0,0v0l0,0v0l0,0v0l0,0h0l0,.06h0l0,.06v0l0,0h0l0,.06h0l0,.06h0l0,.06a4.66,4.66,0,0,0,1.29.06,13.18,13.18,0,0,1-1.77-1.49l0,0h0l0,0h0Zm17.22.2.1-.1h0Zm-.74.65.09-.07Zm-.11.09.09-.07Zm-.22.16.08-.06Zm-.64.45Zm-2,1.06.24-.11Zm-.14.05.13-.05Zm-.27.11.13,0Zm-.12,0,.12,0Zm-.14,0,.11,0Zm-1.68.45.12,0Zm-4.45,0,.09,0Zm-.58-.12.12,0Zm-.13,0,.1,0Zm-.71-.2h0Zm-.15,0,.12,0Zm-.14,0,.13,0Zm-.14-.05.13,0Zm-.79-.32h0c.26.12.52.22.79.32C39.89,59.27,39.63,59.17,39.37,59.05Zm-1.76-1,0,0h0Zm-.35-.24.11.08Zm-.12-.08.11.08Zm-1-.77c.26.24.54.46.82.68-.28-.22-.56-.44-.82-.68Zm18.44-.1.07,0Zm.19-.39c.12-.5.23-1,.31-1.54-.26.08-.54.15-.83.22h0c0,.16,0,.32,0,.47h0v.12h0c0,.22,0,.44,0,.65v0h0v0h0v.09h0v0h0v0h0v0h0v0a1.1,1.1,0,0,1,0,.18h0A7.67,7.67,0,0,1,54.82,56.5Zm-3.1,4.7s0-.06,0-.08Zm-.09.52v0Zm0,.13v0Zm0,.13v0ZM51.5,61c-2.07,1.27-4.14,1.2-5.4-.15v1.46l.1.08h0l0,0,.08.05h0l.1.07h0l0,0a.1.1,0,0,1,.05,0l0,0,.06,0,.06,0,.05,0,.06,0,.06,0,.06,0,0,0,.06,0,0,0,.06,0,.06,0h0l.07,0,0,0h.12l.07,0H49l.08,0h0l.08,0h.05l.08,0h0l.09,0h0l.09,0h0l.09,0h0l.09,0h0l.09,0h0l.09,0h0l.09,0h0l.1,0h0l.1,0h0l.1-.05h0l.1,0h0l.1,0h0l.1-.05h0l.1,0,0,0,.1,0h0a.41.41,0,0,0,.11-.07h0A7.14,7.14,0,0,1,51.5,61ZM51,64q.21-.24.39-.48a2.77,2.77,0,0,1,0-.42,4.35,4.35,0,0,1,0-.51l-.06,0-.05,0h0l0,0h0l0,0h0l0,0h0l0,0,0,0h0l-.14.09-.05,0h0l0,0-.1.06h0l0,0h0l0,0h0l-.09.05h0l0,0,0,0h0l-.05,0h-.07l0,0h0l0,0h0l0,0H50l-.1,0a1.78,1.78,0,0,1-.08,1.16h0l0,0h0l.06,0h.35A4.94,4.94,0,0,0,51,64Zm-7.44,5,0,0Zm1.54-.19,0,.1Zm0-.06,0,0Zm-8-5.28.39.48a5.62,5.62,0,0,0,.64.34h0l0,0h.15l0,0h.09l.07,0h.15a1.78,1.78,0,0,1-.08-1.16l0,0h0l0,0h0l0,0h-.1l0,0h0l-.1,0,0,0h0a8.08,8.08,0,0,1-1-.6c0,.16,0,.33,0,.49A3,3,0,0,1,37,63.47Zm-.25-1.85v.08A.25.25,0,0,0,36.78,61.62Zm.3.54h0l.11.07h0l.1,0,0,0,.1,0h0l.1.05h0l.11,0h0l.1,0h0l.1.05h0l.09,0h0l.09,0h0l.1,0h0l.09,0h0l.09,0h0l.09,0h0l.1,0h0l.1,0h0L39,63h0l.09,0h0l.08,0h0l.08,0h1.47l.07,0h.11l.06,0,.07,0h0l.05,0,.06,0,.06,0,.06,0,0,0,.06,0,.06,0,0,0,.06,0,0,0,.07,0,0,0,.06,0,0,0h0l.11-.07h0l.08-.05,0,0h0l.11-.08V60.88c-1.26,1.35-3.33,1.42-5.4.15A7.14,7.14,0,0,1,37.08,62.16ZM33.29,55c.09.52.19,1,.31,1.52.22.15.43.3.63.46l0-.16v0h0v0h0v0h0v0h0v-.09h0v0h0v0c0-.21,0-.43,0-.65h0v-.12h0c0-.15,0-.31,0-.47h0Zm5.58,8.61h0c-.11.09-.07.44.09.87a1.67,1.67,0,0,0,.08.2,4.35,4.35,0,0,0,1,.13c0-.07-.07-.13-.1-.2h0a4.79,4.79,0,0,0-.31-.47,2,2,0,0,0-.46-.46C39,63.57,38.92,63.54,38.87,63.57Zm8.87,2.54a2,2,0,0,1,.06-.75,8.87,8.87,0,0,1-1.7-.2v.75A4.89,4.89,0,0,0,47.74,66.11Zm.44-.75c-.11.36-.13.63,0,.7h.11a.31.31,0,0,0,.1,0l.4-.68A5.63,5.63,0,0,1,48.18,65.36Zm1.36-1.79h0c-.05,0-.13,0-.24.07a2,2,0,0,0-.46.46,3.48,3.48,0,0,0-.31.47h0a1.86,1.86,0,0,0-.1.2,4.49,4.49,0,0,0,.95-.12,1.8,1.8,0,0,0,.08-.21C49.61,64,49.65,63.66,49.54,63.57Zm-8.93,1.79a2,2,0,0,1,.06.75,5,5,0,0,0,1.66-.2v-.75A9.07,9.07,0,0,1,40.61,65.36Zm7.4-.6,0-.07a3.91,3.91,0,0,1,.18-.35h0a3.75,3.75,0,0,1,.35-.53.86.86,0,0,1,.07-.1A3,3,0,0,1,46.1,63v1.24A4.92,4.92,0,0,0,48,64.76Zm-8.25-1.05a.39.39,0,0,1,.08.1,3.75,3.75,0,0,1,.35.53h0a3.91,3.91,0,0,1,.18.35l0,.08a4.91,4.91,0,0,0,1.93-.55V63A3,3,0,0,1,39.76,63.71Zm.5,2.35c.09-.08.07-.35,0-.7l-.38,0Zm2.9-6h0Zm.13,7V60.35c-.23,0-.45,0-.67-.06V67Zm-6.55-5.64v0Zm0-.14a.29.29,0,0,1,0,.09A.29.29,0,0,0,36.71,61.23Zm0-.13a.29.29,0,0,0,0,.09A.29.29,0,0,1,36.69,61.1Zm-.06-.25a.24.24,0,0,0,0,.08A.24.24,0,0,1,36.63,60.85Zm15.07.48s0,0,0-.08S51.7,61.31,51.7,61.33Zm-8.19,7.73,0,0Zm0,0,0,0Zm0,0,.7.44C44.36,69.41,44.51,69.32,43.51,69.06ZM45.59,60l.11,0Zm-.16,0h0Zm-.26,0,7.08-3.43Zm7.08-3.43-.12,0Zm.25,0a1.9,1.9,0,0,1-.25,0A1.9,1.9,0,0,0,52.5,56.64Zm-.11.21.11-.09Zm-.21.19.21-.19Zm-.1.09.1-.09Zm-.11.1.1-.09Zm-.1.08.09-.08Zm-.34.27.09-.07Zm-.21.16.07-.06Zm-2.78,1.52.12,0Zm-.54.2.12,0Zm-.13,0,.11,0Zm-.84.24.1,0Zm-.15,0,.11,0Zm-.15,0,.14,0Zm-.14,0,.14,0Zm-.41.07h0Zm-4,0h0Zm-.29-.06.11,0Zm-.15,0,.12,0Zm-.15,0,.13,0Zm-4.19-1.86.12.08ZM37,57.68l.11.07ZM43,60h0Zm-.29,0,.13,0Z"/><path class="cls-2" d="M35.83,56.65a12,12,0,0,0,8.38,3.43h0a12,12,0,0,0,8.39-3.43,4.26,4.26,0,0,1-1.16-.26,3.49,3.49,0,0,0-1.3-.26h0a3.55,3.55,0,0,0-1.31.26,4.46,4.46,0,0,1-1.62.29h0a4.5,4.5,0,0,1-1.62-.29,3.55,3.55,0,0,0-1.31-.26h0a3.49,3.49,0,0,0-1.3.26,4.57,4.57,0,0,1-1.63.29h0a4.46,4.46,0,0,1-1.62-.29,3.6,3.6,0,0,0-1.31-.26h0a3.6,3.6,0,0,0-1.31.26,4.09,4.09,0,0,1-1.15.26m-3-4.67a12.37,12.37,0,0,0,1.56,2.94,4,4,0,0,0,1,.12A4.73,4.73,0,0,0,37,54.76a3.68,3.68,0,0,1,1.31-.25h.1a3.78,3.78,0,0,1,1.32.25,4.63,4.63,0,0,0,3.17,0,3.72,3.72,0,0,1,1.31-.25h.1a3.78,3.78,0,0,1,1.32.25,4.63,4.63,0,0,0,3.17,0,3.78,3.78,0,0,1,1.32-.25h.1a3.72,3.72,0,0,1,1.31.25,4.63,4.63,0,0,0,1.59.28,4.07,4.07,0,0,0,1-.12A12.74,12.74,0,0,0,55.65,52a3.25,3.25,0,0,0-.95.27,3.84,3.84,0,0,1-1.63.35h0a3.76,3.76,0,0,1-1.63-.35,3.28,3.28,0,0,0-1.3-.3h0a3.23,3.23,0,0,0-1.3.3,3.84,3.84,0,0,1-1.63.35h0a3.84,3.84,0,0,1-1.63-.35,3.23,3.23,0,0,0-1.3-.3h0a3.28,3.28,0,0,0-1.3.3,3.76,3.76,0,0,1-1.63.35h0a3.84,3.84,0,0,1-1.63-.35,3.23,3.23,0,0,0-1.3-.3h0a3.28,3.28,0,0,0-1.3.3,3.8,3.8,0,0,1-1.63.35h0a3.76,3.76,0,0,1-1.63-.35A3.25,3.25,0,0,0,32.78,52Zm23.64-4.37h0V26.74H32V47.61h0a12.34,12.34,0,0,0,.24,2.45h.22a3.17,3.17,0,0,1,1.32.3,3.84,3.84,0,0,0,3.16,0,3.17,3.17,0,0,1,1.32-.3h.1a3.17,3.17,0,0,1,1.32.3,4,4,0,0,0,1.58.34,3.8,3.8,0,0,0,1.34-.25V35.62H37.17V32.33H42.6V28h3.23v4.32h5.43v3.29H45.83V50.45a3.71,3.71,0,0,0,1.34.25,4.09,4.09,0,0,0,1.58-.34,3.14,3.14,0,0,1,1.32-.3h.1a3.17,3.17,0,0,1,1.32.3,3.84,3.84,0,0,0,3.16,0,3.17,3.17,0,0,1,1.32-.3h.22A13.13,13.13,0,0,0,56.42,47.61Z"/><path class="cls-2" d="M33.44,61.08h0a.36.36,0,0,1,.26.11.45.45,0,0,1,.12.3h0a.43.43,0,0,1-.12.29.32.32,0,0,1-.26.12h0a.34.34,0,0,1-.27-.12.42.42,0,0,1-.11-.29h0a.44.44,0,0,1,.11-.3.37.37,0,0,1,.27-.11m.58.73a.76.76,0,0,0,1-.51.61.61,0,0,1,0-.13v0a.28.28,0,0,1,0-.13l0,0h0a1,1,0,0,1-.39.41h0a.76.76,0,0,1-.53.07s0-.06,0-.09h0a.78.78,0,0,0,0-.16.63.63,0,0,0,.26-.7.54.54,0,0,1-.35.48L33.91,61a.67.67,0,0,0-.47-.2h0A.66.66,0,0,0,33,61a.71.71,0,0,0-.19.49h0A.67.67,0,0,0,33,62a.63.63,0,0,0,.47.21h0a.66.66,0,0,0,.58-.37ZM29.69,50.16l.34.07L30,53.89a6.42,6.42,0,0,1-.38-.53,7.49,7.49,0,0,1-.36-.69Zm-1.06-.56a3.38,3.38,0,0,0,.85.49l-.41,2.21A7.8,7.8,0,0,1,28.63,49.6Zm1.62.65a3.13,3.13,0,0,0,.53,0l.23,4.7a7.05,7.05,0,0,1-.84-.79ZM31.66,50l1,6a8.92,8.92,0,0,1-1.4-.83L31,50.19A4.2,4.2,0,0,0,31.66,50Zm-1.44,5.9a.11.11,0,0,1-.1.11.11.11,0,0,1-.12-.1L30,55.24a.11.11,0,0,1,.1-.12.1.1,0,0,1,.11.1Zm-.59-.42a.11.11,0,0,1-.11.11.13.13,0,0,1-.11-.12l0-.76a.11.11,0,0,1,.21,0Zm-.5-.67a.1.1,0,0,1-.11.1.1.1,0,0,1-.1-.11l0-.8a.1.1,0,0,1,.11-.1.11.11,0,0,1,.11.11Zm-.5-.65a.1.1,0,0,1-.12.09.1.1,0,0,1-.09-.12l.11-.88a.11.11,0,0,1,.12-.1.1.1,0,0,1,.09.12Zm-.28-.72a.1.1,0,0,1-.12.08.1.1,0,0,1-.09-.12l.14-.82a.1.1,0,0,1,.12-.08.1.1,0,0,1,.09.12ZM28,52.67a.11.11,0,0,1-.21-.07l.29-.83a.1.1,0,0,1,.13-.07.11.11,0,0,1,.07.14Zm-.13-.81a.12.12,0,0,1-.15.06.12.12,0,0,1-.05-.15l.3-.65a.12.12,0,0,1,.15-.06.12.12,0,0,1,.05.15Zm-.17-.66a.1.1,0,0,1-.14,0,.1.1,0,0,1,0-.15l.42-.75a.11.11,0,1,1,.19.11Zm0-1a.12.12,0,0,1-.16,0,.11.11,0,0,1,0-.15l.43-.48a.11.11,0,1,1,.16.14Zm.09-.79a.11.11,0,1,1-.14-.16L28,49a.11.11,0,0,1,.15,0,.12.12,0,0,1,0,.16Zm.48,10.36a.11.11,0,0,1-.08-.12.11.11,0,0,1,.13-.09,1.35,1.35,0,0,1,.56.28,2,2,0,0,1,.42.49.11.11,0,0,1,0,.15.11.11,0,0,1-.15,0,1.83,1.83,0,0,0-.38-.44A1.05,1.05,0,0,0,28.26,59.81Zm-1.66-.16a.12.12,0,0,1-.12-.1.1.1,0,0,1,.09-.12h.18a1.34,1.34,0,0,1,.43.1.11.11,0,0,1-.08.2.94.94,0,0,0-.36-.08H26.6Zm-.86-1.35a.1.1,0,0,1-.13-.07.11.11,0,0,1,.07-.14h0l.07,0,.06,0h0a.71.71,0,0,0,.27-.21.11.11,0,0,1,.16,0,.11.11,0,0,1,0,.15,1.06,1.06,0,0,1-.34.26h0l-.08,0-.09,0Zm2.42.66a.1.1,0,0,1-.11.1.11.11,0,0,1-.11-.11l0-1.24a.11.11,0,0,1,.11-.11.1.1,0,0,1,.1.11Zm-.57-1a.1.1,0,0,1-.11.1.11.11,0,0,1-.11-.11l0-1.15a.11.11,0,0,1,.11-.11.1.1,0,0,1,.1.11ZM27,57.2a.1.1,0,0,1-.11.1.1.1,0,0,1-.11-.1,4.17,4.17,0,0,1,.07-.71,5.33,5.33,0,0,1,.17-.66.12.12,0,0,1,.14-.07.13.13,0,0,1,.07.14,4.91,4.91,0,0,0-.17.63A3.71,3.71,0,0,0,27,57.2Zm-.48-.77a.1.1,0,0,1-.12.09.1.1,0,0,1-.09-.12,6.85,6.85,0,0,1,.14-.85,5.09,5.09,0,0,1,.22-.75.1.1,0,0,1,.13-.07.11.11,0,0,1,.07.14,7,7,0,0,0-.21.73A6.23,6.23,0,0,0,26.54,56.43Zm-.37-1.28a.11.11,0,1,1-.22,0,3.36,3.36,0,0,1,.18-.84,2.16,2.16,0,0,1,.36-.63.13.13,0,0,1,.16,0,.12.12,0,0,1,0,.16,1.63,1.63,0,0,0-.33.56A2.83,2.83,0,0,0,26.17,55.15Zm-.3-.8a.11.11,0,0,1-.22,0h0l0-.28.06-.26a2.34,2.34,0,0,1,.56-1.07.11.11,0,0,1,.16.15,2.1,2.1,0,0,0-.51,1,2,2,0,0,0-.05.24,1.15,1.15,0,0,0,0,.26ZM25.7,52a.12.12,0,0,1-.14.06A.12.12,0,0,1,25.5,52h0a1.42,1.42,0,0,0,.08-.18l.09-.17a2.68,2.68,0,0,1,.57-.7.11.11,0,0,1,.15,0,.12.12,0,0,1,0,.16,2.24,2.24,0,0,0-.52.64.8.8,0,0,0-.08.16.89.89,0,0,0-.08.17Zm0-.78a.11.11,0,0,1-.15.05.1.1,0,0,1-.05-.14,3,3,0,0,1,.3-.57,1.79,1.79,0,0,1,.35-.41.11.11,0,0,1,.15,0,.12.12,0,0,1,0,.16,1.61,1.61,0,0,0-.31.36A2.72,2.72,0,0,0,25.72,51.26Zm.15-1a.1.1,0,0,1-.14,0,.11.11,0,0,1-.05-.15,2.51,2.51,0,0,1,.32-.46,1.85,1.85,0,0,1,.39-.35.1.1,0,0,1,.15,0,.11.11,0,0,1,0,.15,2.11,2.11,0,0,0-.35.32A2.69,2.69,0,0,0,25.87,50.24ZM26,49.4a.11.11,0,0,1-.18-.13h0l.08-.11.08-.1a2,2,0,0,1,.44-.4.1.1,0,0,1,.15,0,.12.12,0,0,1,0,.15,1.6,1.6,0,0,0-.39.36l-.08.09Zm4.84,7a.11.11,0,0,1-.09.12.1.1,0,0,1-.12-.09l-.09-.61a.1.1,0,0,1,.09-.12.1.1,0,0,1,.12.09Zm-5.39-3.35a.1.1,0,0,0,.07.07.11.11,0,0,0,.14-.07,2.81,2.81,0,0,1,.29-.65,1.94,1.94,0,0,1,.35-.44.11.11,0,0,0,0-.15.12.12,0,0,0-.16,0,2.4,2.4,0,0,0-.39.48,3.56,3.56,0,0,0-.31.7h0A.06.06,0,0,0,25.46,53.09Zm.77-4.55a.11.11,0,0,1-.15,0,.1.1,0,0,1,0-.15l.46-.51a.11.11,0,1,1,.16.14Zm1-17.68c0,2.84,1.17,4.58,2.49,6.47.46.66.94,1.34,1.37,2.08.81,1.4.36,2.53-.15,3.81a10.44,10.44,0,0,0-.78,3.06A8.91,8.91,0,0,0,30.36,50l-.24,0a2.78,2.78,0,0,1-1.52-.73l-.18-.15v.23a7.28,7.28,0,0,0,1,4.1,7.46,7.46,0,0,0,3.32,2.75l.13.06h0a7.1,7.1,0,0,1,4,6.75c-.05,1.21-.53,2-1.8,1.68h0c-1.07-.28-1.74-1.17-2.71-1.57a3.88,3.88,0,0,0-.45-.14c1,.53,1.82,1.47,2.92,1.87-.55.78-1.91.15-2.54-.18A14.67,14.67,0,0,1,28.71,62h0a.44.44,0,0,1,.2,0l.26,0a2.23,2.23,0,0,0-.42-.23l-.18,0h-.08v0l-.24-.26h.1a4,4,0,0,1,.6,0l-.2-.1a1.7,1.7,0,0,0-.37-.1h-.32c-.06-.06-.11-.13-.16-.19a1.79,1.79,0,0,1,.54-.1h.35a3.73,3.73,0,0,0-.95-.23h-.2l-.1-.13.28,0a4.41,4.41,0,0,1,.62-.09l-.19-.07a2,2,0,0,0-.48-.11,3.48,3.48,0,0,0-.47,0h0c-1.16.07-3.57-.25-3.93,1.12l0,0h0c-.5-.41-1-.82-1.45-1.26l3.54-.4.42-.21L21.64,60c-.4-.39-.8-.78-1.17-1.19l4-.1.51-.19-4.68.07L19.78,58l0,0c.93-1.15,4.49-.14,5.36-.41.52-.12.75-.48.95-1a1.32,1.32,0,0,1-.47.58,1.88,1.88,0,0,1-.29.16,2.17,2.17,0,0,0-.1-.38,3,3,0,0,0,.52-.7l-.63.4c0-.1-.07-.21-.1-.33a1.76,1.76,0,0,1,.55-.62.85.85,0,0,0-.67.18c0-.08,0-.16-.05-.25a1,1,0,0,1,.62-.49l0,0a1.79,1.79,0,0,0-.45,0l-.13,0h0l-.09,0a3.06,3.06,0,0,1-.06-.45,1.33,1.33,0,0,1,.52-.38s.06,0,.08,0h-.64c0-.08,0-.17,0-.26a1.92,1.92,0,0,1,.56-.5v0c-.19,0-.37.16-.56.19a2.94,2.94,0,0,1,0-.42,2.83,2.83,0,0,1,.52-.44v-.06a2.85,2.85,0,0,0-.51.2,1.93,1.93,0,0,0,0-.24h0c.15-.15.31-.48.46-.57l0,0a3,3,0,0,0-.41.19v-.15l0,0,0,0v-.18l.55-.51-.42.12-.1,0a1.09,1.09,0,0,1,0-.18l.52-.49a2.56,2.56,0,0,0-.49.16c0-.07,0-.14,0-.21a4.65,4.65,0,0,1,.53-.45l0,0a3.22,3.22,0,0,1-.44.14h0l-.05,0,0-.32c.16-.15.37-.22.53-.35v-.06A2.18,2.18,0,0,1,25,50l0-.19a2.5,2.5,0,0,0,.52-.35v0h0a2.81,2.81,0,0,1-.44.05l.06-.33a4.43,4.43,0,0,0,.42-.29.32.32,0,0,1,.1-.1v0c-.12,0-.29.06-.43.07,0-.07,0-.13,0-.2l.42-.3h-.34v-.05l.47-.37-.36,0,0-.08.53-.46-.35-.06,0-.09.5-.36-.34,0,.06-.15.57-.4H26.1l.06-.12.55-.37-.31-.05a2.12,2.12,0,0,1,.12-.2l.57-.37-.31,0c.08-.11.15-.24.22-.36l.43-.17-.32,0,.1-.19a.22.22,0,0,0,.05-.08l.34-.16-.23,0a2.15,2.15,0,0,1,.14-.26l.31-.19H27.6l.12-.23c.4-.82,1.28-2.87.22-3.66-1.38-1-2-.14-2.78.88s-1.8,2.4-4.11,1.6a4,4,0,0,0,1.25-1,31.55,31.55,0,0,0,3.25-2.62l.09-.21c-1,.81-2.07,1.56-3.11,2.34.2-.48.39-1.35.88-1.59h0a8.87,8.87,0,0,0,2.15-1.76l.07-.18a14.24,14.24,0,0,1-2.19,1.67,2.16,2.16,0,0,1,.44-1.13,5.33,5.33,0,0,0,1.83-1.25l0-.09A10.51,10.51,0,0,1,24,37.48c.2-1.14.68-1.27,1.08-1.38a.83.83,0,0,0,.62-.37c.36-.63-.17-.88-.37-1.37h0a1.15,1.15,0,0,1,.3-1.1,7.27,7.27,0,0,0,1.12,2.37l.06-.05a9.15,9.15,0,0,1-.57-1.23c-.25-.56-.8-1.67-.12-2.12.06,0,.16-.09.22,0a6.07,6.07,0,0,0,.81,2.38l0,0A10.5,10.5,0,0,1,26.49,32C26.4,31.63,26.79,30.86,27.19,30.86ZM25,52.49h0"/><path class="cls-2" d="M55,61.09h0a.4.4,0,0,0-.27.12.44.44,0,0,0-.11.3h0a.42.42,0,0,0,.11.29.4.4,0,0,0,.27.12h0a.4.4,0,0,0,.27-.12.42.42,0,0,0,.11-.29h0a.44.44,0,0,0-.11-.3.4.4,0,0,0-.27-.12m-.58.74a.76.76,0,0,1-1-.51l0-.13h0a.5.5,0,0,0,0-.12v0h0a1,1,0,0,0,.39.41h0a.8.8,0,0,0,.54.08.28.28,0,0,1,0-.09h0a.88.88,0,0,1,0-.17.62.62,0,0,1-.26-.7.53.53,0,0,0,.35.49.44.44,0,0,1,.08-.11.64.64,0,0,1,.47-.21h0a.64.64,0,0,1,.47.21.71.71,0,0,1,.19.49h0a.69.69,0,0,1-.19.48.64.64,0,0,1-.47.21h0a.64.64,0,0,1-.47-.21A.91.91,0,0,1,54.41,61.83Zm4.33-11.66-.35.08.08,3.65a3.87,3.87,0,0,0,.37-.53,4.92,4.92,0,0,0,.37-.68Zm1.06-.55a3.2,3.2,0,0,1-.85.48l.41,2.22A8.09,8.09,0,0,0,59.8,49.62Zm-1.62.65a3.09,3.09,0,0,1-.53,0l-.23,4.69a6.26,6.26,0,0,0,.84-.78ZM56.77,50l-1,6a8.81,8.81,0,0,0,1.39-.83l.24-4.91A3.41,3.41,0,0,1,56.77,50Zm1.44,5.9a.11.11,0,1,0,.22,0l0-.66a.11.11,0,1,0-.21,0Zm.59-.41a.1.1,0,0,0,.11.1.1.1,0,0,0,.1-.11l0-.76a.11.11,0,0,0-.11-.11.13.13,0,0,0-.11.12Zm.5-.68a.11.11,0,0,0,.11.11.11.11,0,0,0,.1-.11l0-.8a.13.13,0,0,0-.12-.11.12.12,0,0,0-.1.12Zm.49-.64a.1.1,0,0,0,.12.09.12.12,0,0,0,.1-.12l-.11-.89a.11.11,0,1,0-.21,0Zm.29-.73a.11.11,0,0,0,.21,0l-.14-.82a.11.11,0,0,0-.13-.09.11.11,0,0,0-.08.13Zm.32-.74a.11.11,0,0,0,.14.06.11.11,0,0,0,.07-.13l-.29-.84a.11.11,0,0,0-.14-.06.1.1,0,0,0-.06.13Zm.13-.81a.1.1,0,0,0,.14,0,.1.1,0,0,0,.06-.14l-.31-.66a.11.11,0,0,0-.14-.05.11.11,0,0,0-.05.14Zm.16-.67a.12.12,0,0,0,.15,0,.11.11,0,0,0,0-.15l-.42-.75a.11.11,0,1,0-.19.11Zm.05-1a.11.11,0,1,0,.16-.15l-.42-.48a.11.11,0,0,0-.15,0,.11.11,0,0,0,0,.16Zm-.09-.79a.1.1,0,0,0,.15,0,.11.11,0,0,0,0-.15L60.47,49a.11.11,0,0,0-.16,0,.11.11,0,0,0,0,.15Zm-.49,10.36a.11.11,0,0,0,.09-.13.11.11,0,0,0-.13-.08,1.19,1.19,0,0,0-.56.28,2,2,0,0,0-.42.49.1.1,0,0,0,0,.15.12.12,0,0,0,.15,0,2,2,0,0,1,.38-.44A1.11,1.11,0,0,1,60.16,59.83Zm1.67-.17a.11.11,0,1,0,0-.21h-.18a1.08,1.08,0,0,0-.43.1.1.1,0,0,0-.06.14.11.11,0,0,0,.14.06,1.19,1.19,0,0,1,.36-.09h.14Zm.86-1.34a.12.12,0,0,0,.13-.08.1.1,0,0,0-.07-.13h0l-.07,0-.06,0h0a1.21,1.21,0,0,1-.28-.21.1.1,0,0,0-.15,0,.12.12,0,0,0,0,.16,1,1,0,0,0,.34.26h0l.08,0,.09,0ZM60.27,59a.11.11,0,0,0,.22,0l0-1.24a.11.11,0,0,0-.22,0Zm.57-1a.11.11,0,0,0,.11.1.11.11,0,0,0,.11-.11l0-1.15a.11.11,0,1,0-.22,0Zm.57-.74a.11.11,0,0,0,.11.11.11.11,0,0,0,.1-.11,4,4,0,0,0-.06-.7,4.55,4.55,0,0,0-.17-.66.11.11,0,1,0-.21.07,4.5,4.5,0,0,1,.17.63A3.68,3.68,0,0,1,61.41,57.21Zm.48-.77a.11.11,0,0,0,.12.1.1.1,0,0,0,.09-.12,6.85,6.85,0,0,0-.14-.85,6.69,6.69,0,0,0-.22-.75.11.11,0,0,0-.14-.07.11.11,0,0,0-.06.14q.12.34.21.72C61.81,55.87,61.85,56.15,61.89,56.44Zm.37-1.28a.11.11,0,0,0,.12.1.1.1,0,0,0,.1-.11,3.26,3.26,0,0,0-.18-.84,1.78,1.78,0,0,0-.37-.63.11.11,0,0,0-.16.14,1.73,1.73,0,0,1,.33.56A3.47,3.47,0,0,1,62.26,55.16Zm.3-.8a.11.11,0,0,0,.12.1.1.1,0,0,0,.1-.11h0a2.51,2.51,0,0,0,0-.27,2,2,0,0,0-.05-.26,2.38,2.38,0,0,0-.56-1.07.11.11,0,0,0-.16,0,.12.12,0,0,0,0,.16,2.2,2.2,0,0,1,.51,1,2,2,0,0,1,.05.24l0,.26Zm.17-2.3a.1.1,0,0,0,.14,0,.1.1,0,0,0,.06-.14h0l-.09-.18a.91.91,0,0,0-.09-.17,2.5,2.5,0,0,0-.56-.7.11.11,0,0,0-.15,0,.1.1,0,0,0,0,.15,2.59,2.59,0,0,1,.52.64l.08.16.08.17h0Zm0-.79a.11.11,0,0,0,.14.06.11.11,0,0,0,.06-.14,3.49,3.49,0,0,0-.3-.58,2,2,0,0,0-.35-.4.11.11,0,0,0-.15,0,.1.1,0,0,0,0,.15,1.61,1.61,0,0,1,.31.36A3.37,3.37,0,0,1,62.71,51.27Zm-.15-1a.1.1,0,0,0,.14,0,.13.13,0,0,0,0-.15,2.67,2.67,0,0,0-.32-.46,2.19,2.19,0,0,0-.39-.36.11.11,0,0,0-.15,0,.1.1,0,0,0,0,.15,2.6,2.6,0,0,1,.35.32A2.22,2.22,0,0,1,62.56,50.25Zm-.14-.84a.11.11,0,0,0,.15,0,.11.11,0,0,0,0-.15h0l-.09-.11a.44.44,0,0,0-.08-.11,2,2,0,0,0-.43-.4.11.11,0,0,0-.15,0,.1.1,0,0,0,0,.14,2.13,2.13,0,0,1,.39.36l.07.1Zm-4.85,7a.13.13,0,0,0,.1.13.13.13,0,0,0,.12-.1l.09-.6a.11.11,0,0,0-.09-.12.11.11,0,0,0-.13.09ZM63,53.1a.11.11,0,0,1-.07.08.11.11,0,0,1-.14-.07,2.81,2.81,0,0,0-.29-.65,2.33,2.33,0,0,0-.35-.44.11.11,0,0,1,.14-.16,2.16,2.16,0,0,1,.39.49A3.17,3.17,0,0,1,63,53h0Zm-.77-4.55a.1.1,0,0,0,.15,0,.11.11,0,0,0,0-.15l-.46-.52a.11.11,0,0,0-.15,0,.1.1,0,0,0,0,.15Zm-1-17.67c.05,2.84-1.17,4.58-2.48,6.47-.47.66-.94,1.34-1.37,2.08-.82,1.4-.37,2.53.15,3.81a10.76,10.76,0,0,1,.78,3.06,9,9,0,0,1-.24,3.75h.23a2.78,2.78,0,0,0,1.53-.73l.18-.15v.23a7.32,7.32,0,0,1-1,4.1,7.52,7.52,0,0,1-3.32,2.75l-.13.06h0a7.12,7.12,0,0,0-4,6.74c0,1.22.54,2,1.81,1.68h0c1.06-.28,1.74-1.18,2.71-1.57a2.59,2.59,0,0,1,.45-.14c-1,.53-1.82,1.47-2.92,1.87.55.78,1.91.15,2.54-.18a14.43,14.43,0,0,0,3.55-2.64h0a.44.44,0,0,0-.2,0l-.26,0a2.23,2.23,0,0,1,.42-.23.52.52,0,0,1,.17,0h.09v0l.24-.27H60a5.76,5.76,0,0,0-.59,0l.19-.11a1.31,1.31,0,0,1,.38-.09,1.71,1.71,0,0,1,.32,0l.16-.19a1.91,1.91,0,0,0-.54-.1l-.35,0a4.08,4.08,0,0,1,.94-.22h.21a.64.64,0,0,1,.1-.13l-.28,0A3.54,3.54,0,0,0,60,60.6l.19-.07a2.08,2.08,0,0,1,.48-.11,3.59,3.59,0,0,1,.47,0h0c1.16.07,3.55-.25,3.92,1.11.52-.42,1-.85,1.51-1.3L63,59.8l-.42-.22,4.15.42c.4-.38.8-.77,1.18-1.18l-4-.11-.51-.18,4.66.07c.17-.18.33-.36.49-.55l0,0c-.93-1.15-4.49-.14-5.36-.41-.52-.12-.76-.48-1-1a1.22,1.22,0,0,0,.46.57,1.69,1.69,0,0,0,.3.17,2.17,2.17,0,0,1,.1-.38,3,3,0,0,1-.52-.7l.63.4c0-.1.06-.21.1-.33a1.9,1.9,0,0,0-.55-.63.83.83,0,0,1,.66.19l.06-.25a1,1,0,0,0-.62-.49v0a1.48,1.48,0,0,1,.46,0l.13,0h0l.09.05c0-.14,0-.3.06-.46a1.38,1.38,0,0,0-.52-.37s-.06,0-.09,0h.52l.06,0h.06a2.28,2.28,0,0,0,0-.26,2.47,2.47,0,0,0-.56-.51v0c.19,0,.37.17.56.2v-.43a2.86,2.86,0,0,0-.53-.43l0-.06a2.85,2.85,0,0,1,.51.2c0-.08,0-.16,0-.24h0c-.14-.15-.3-.48-.45-.57l0,0a3.11,3.11,0,0,1,.41.2v-.16l0,0,0,0v-.17l-.56-.52.43.13.1,0c0-.06,0-.12,0-.18L63.1,51a2.16,2.16,0,0,1,.49.16,1.64,1.64,0,0,1,0-.22,6.06,6.06,0,0,0-.54-.44l0-.05a3.73,3.73,0,0,0,.44.14h0l.05,0a3.11,3.11,0,0,0,0-.32A6,6,0,0,0,63,50v-.05a2.09,2.09,0,0,0,.47.08l0-.18a2.63,2.63,0,0,1-.52-.35v0h0a1.61,1.61,0,0,0,.44.05,2,2,0,0,0-.06-.32,4.85,4.85,0,0,1-.41-.29.35.35,0,0,0-.1-.11v0l.43.07a1.17,1.17,0,0,0,0-.2l-.41-.3h.34v0l-.47-.37.35,0,0-.08-.53-.47.35-.06,0-.08-.5-.36.34,0-.06-.14-.58-.4h.38l-.06-.11-.55-.37.31-.06-.12-.19-.58-.38.32,0a3.13,3.13,0,0,1-.22-.36L61,44.59l.33,0-.11-.19a.22.22,0,0,0-.05-.08l-.33-.17h.23c-.05-.09-.1-.18-.14-.27l-.31-.18h.22l-.12-.23c-.4-.82-1.29-2.87-.23-3.66,1.38-1,2-.15,2.79.88s1.79,2.4,4.11,1.6a4,4,0,0,1-1.26-1,33.75,33.75,0,0,1-3.25-2.61l-.08-.21c1,.8,2.07,1.56,3.11,2.34-.2-.48-.4-1.36-.88-1.59h0a8.91,8.91,0,0,1-2.15-1.76l-.07-.18A14.09,14.09,0,0,0,65,38.88a2.14,2.14,0,0,0-.43-1.12,5.47,5.47,0,0,1-1.83-1.25l0-.1a9.29,9.29,0,0,0,1.78,1.08c-.2-1.13-.68-1.26-1.07-1.37a.9.9,0,0,1-.62-.37c-.36-.64.16-.88.37-1.37h0a1.17,1.17,0,0,0-.3-1.11,7.32,7.32,0,0,1-1.12,2.38l-.06,0a11.4,11.4,0,0,0,.57-1.23c.25-.56.79-1.67.11-2.12-.05,0-.15-.09-.22,0a6.16,6.16,0,0,1-.8,2.38l0,0A10.29,10.29,0,0,0,61.94,32C62,31.65,61.64,30.88,61.23,30.88Zm2.2,21.62h0"/><path class="cls-2" d="M57.2,66.28l2,4.64.49-.2A34.17,34.17,0,0,0,74.42,59.18l-3.06-.39h-.08V58.7l-.5-3.11a23.85,23.85,0,0,1-1.72,2.31,27,27,0,0,1-2.21,2.34,30.8,30.8,0,0,1-9.64,6m11.24-3.09.3-.39a.44.44,0,0,0,.29.1.34.34,0,0,0,.25-.11.36.36,0,0,0,.1-.27.45.45,0,0,0-.16-.3.42.42,0,0,0-.29-.14.35.35,0,0,0-.26.1,1.33,1.33,0,0,0-.14.2l-.26-.33a.43.43,0,0,0,.16-.29.31.31,0,0,0-.11-.25.26.26,0,0,0-.21-.1.35.35,0,0,0-.2.1.31.31,0,0,0-.09.22.45.45,0,0,0,.11.27l-.38.28a.9.9,0,0,1-.18-.37.75.75,0,0,1,0-.36.94.94,0,0,1,.81-.61.61.61,0,0,1,.58.84.64.64,0,0,1,.42-.11.6.6,0,0,1,.39.19.79.79,0,0,1,.25.6.93.93,0,0,1-.26.63.91.91,0,0,1-.57.28A.78.78,0,0,1,68.44,63.19Zm-.06,1-.39.33L66.75,63a1.77,1.77,0,0,1-.25.72l-.3-.36a1.43,1.43,0,0,0,.17-.46,1,1,0,0,0,0-.54l.32-.26Zm-2.75,1.1a.45.45,0,0,0,.28.2.34.34,0,0,0,.29,0,.44.44,0,0,0,.15-.25.47.47,0,0,0-.11-.33.39.39,0,0,0-.26-.18.36.36,0,0,0-.28.06.31.31,0,0,0-.15.26A.43.43,0,0,0,65.63,65.24Zm-.62-1a.32.32,0,0,0,.21.14.36.36,0,0,0,.24-.06.3.3,0,0,0,.14-.21.32.32,0,0,0-.07-.24.31.31,0,0,0-.2-.14.32.32,0,0,0-.23.06A.38.38,0,0,0,65,64,.36.36,0,0,0,65,64.28Zm.21.48a.54.54,0,0,1-.36,0,.49.49,0,0,1-.26-.21.61.61,0,0,1-.11-.52.79.79,0,0,1,.37-.5.88.88,0,0,1,.59-.18.66.66,0,0,1,.46.29.56.56,0,0,1,.11.32.61.61,0,0,1-.1.34.69.69,0,0,1,.43,0,.7.7,0,0,1,.32.25.81.81,0,0,1,.15.63.89.89,0,0,1-.38.55,1,1,0,0,1-.61.19.74.74,0,0,1-.58-.35.66.66,0,0,1-.14-.38A.67.67,0,0,1,65.22,64.76ZM65,66.61l-.43.27-1-1.63a1.64,1.64,0,0,1-.35.68L63,65.54a1.64,1.64,0,0,0,.24-.44.9.9,0,0,0,0-.53l.35-.22Zm-3.7,1,.77-.37a.56.56,0,0,0-.21-.22.41.41,0,0,0-.36,0,.4.4,0,0,0-.22.24A.45.45,0,0,0,61.33,67.58Zm1,0,.26-.09a.69.69,0,0,1,0,.43.74.74,0,0,1-.34.31.72.72,0,0,1-.57.05.84.84,0,0,1-.43-.44.86.86,0,0,1-.09-.63.68.68,0,0,1,.37-.41.71.71,0,0,1,.55,0,.86.86,0,0,1,.43.45.16.16,0,0,1,0,.06l-1,.5a.6.6,0,0,0,.3.29.47.47,0,0,0,.35,0,.45.45,0,0,0,.18-.18A.49.49,0,0,0,62.28,67.59Zm-2.36.76a.62.62,0,0,0,.29.35.35.35,0,0,0,.33,0,.36.36,0,0,0,.21-.24.67.67,0,0,0-.06-.44.72.72,0,0,0-.29-.37.35.35,0,0,0-.33,0,.34.34,0,0,0-.21.24A.66.66,0,0,0,59.92,68.35Zm1.06.38-.08-.18a.47.47,0,0,1-.3.38.61.61,0,0,1-.35,0,.66.66,0,0,1-.33-.17.91.91,0,0,1-.24-.35,1.29,1.29,0,0,1-.1-.41.65.65,0,0,1,.1-.35.63.63,0,0,1,.28-.23.44.44,0,0,1,.25,0,.52.52,0,0,1,.22.07l-.3-.7.24-.1.83,2Zm-32.41-.39a.63.63,0,0,0,0,.46.37.37,0,0,0,.25.25.39.39,0,0,0,.35,0,.66.66,0,0,0,.28-.37.6.6,0,0,0,0-.45.4.4,0,0,0-.24-.25.42.42,0,0,0-.36,0A.67.67,0,0,0,28.57,68.34Zm-.25-.09a.81.81,0,0,1,.45-.5.69.69,0,0,1,.51,0,.65.65,0,0,1,.41.38.74.74,0,0,1,0,.6.89.89,0,0,1-.25.4.57.57,0,0,1-.33.16.71.71,0,0,1-.38,0,.65.65,0,0,1-.41-.38A.79.79,0,0,1,28.32,68.25Zm-1.68.06.92-1.9.24.11-.33.68a.58.58,0,0,1,.5,0,.78.78,0,0,1,.24.19.46.46,0,0,1,.08.25.91.91,0,0,1-.1.33l-.43.87-.23-.11.42-.87a.41.41,0,0,0,.05-.29.3.3,0,0,0-.18-.19.4.4,0,0,0-.22,0,.36.36,0,0,0-.2.08.83.83,0,0,0-.16.24l-.37.75Zm-.58-.3,1-1.86.23.12-1,1.87Zm-.6-.28.12-.2a.54.54,0,0,1-.55,0,.55.55,0,0,1-.2-.17.34.34,0,0,1-.08-.2.47.47,0,0,1,0-.2,2.21,2.21,0,0,1,.11-.22l.48-.82.22.13-.42.73A2.08,2.08,0,0,0,25,67a.31.31,0,0,0,0,.19.4.4,0,0,0,.14.15.42.42,0,0,0,.22.05.37.37,0,0,0,.21-.06,1,1,0,0,0,.19-.24l.41-.71.22.13-.76,1.32Zm-1.92-1.8.24.1a.5.5,0,0,0-.1.33.26.26,0,0,0,.14.19.32.32,0,0,0,.18.06.25.25,0,0,0,.16-.06.69.69,0,0,0,.16-.21l.78-1.23.23.15-.76,1.22a1,1,0,0,1-.27.31.44.44,0,0,1-.29.08.63.63,0,0,1-.32-.1.56.56,0,0,1-.28-.37A.64.64,0,0,1,23.54,65.93ZM22,64.46l.68.53a.53.53,0,0,0,.1-.29.41.41,0,0,0-.16-.31.38.38,0,0,0-.32-.09A.5.5,0,0,0,22,64.46Zm.41.86.2.19a.6.6,0,0,1-.41.14.77.77,0,0,1-.72-.65,1,1,0,0,1,.73-.93.65.65,0,0,1,.53.15.6.6,0,0,1,.27.47.79.79,0,0,1-.21.58l0,.06-.9-.71a.6.6,0,0,0-.13.4.42.42,0,0,0,.17.3.4.4,0,0,0,.24.09A.51.51,0,0,0,22.44,65.32Zm-1.77-1.76a.71.71,0,0,0-.19.42.39.39,0,0,0,.14.3.37.37,0,0,0,.31.08.66.66,0,0,0,.36-.25.77.77,0,0,0,.21-.43.4.4,0,0,0-.14-.31.38.38,0,0,0-.31-.08A.79.79,0,0,0,20.67,63.56Zm.14,1.11.12-.14a.46.46,0,0,1-.47-.11.53.53,0,0,1-.19-.29.66.66,0,0,1,0-.37,1.07,1.07,0,0,1,.21-.37,1.12,1.12,0,0,1,.32-.27.59.59,0,0,1,.36-.07.58.58,0,0,1,.33.14.55.55,0,0,1,.15.2.49.49,0,0,1,0,.23l.49-.58.2.17L21,64.83Zm-.9-3.14a.57.57,0,0,0,.22-.34.36.36,0,0,0-.07-.29.3.3,0,0,0-.24-.1.57.57,0,0,0-.34.17.6.6,0,0,0-.22.32.35.35,0,0,0,.08.28.33.33,0,0,0,.25.11A.49.49,0,0,0,19.91,61.53Zm-1.6-.14.37.34a.31.31,0,0,0-.11.21.27.27,0,0,0,.08.2.31.31,0,0,0,.28.11,1.16,1.16,0,0,0,.55-.29.61.61,0,0,1-.48-.21.73.73,0,0,1-.18-.57,1,1,0,0,1,.33-.59.91.91,0,0,1,.65-.25.87.87,0,0,1,.59.3.81.81,0,0,1,.2.71,1.56,1.56,0,0,1-.6.87,1.7,1.7,0,0,1-1,.49.9.9,0,0,1-.71-.32.77.77,0,0,1-.2-.49A.8.8,0,0,1,18.31,61.39ZM18,61.25l-.38.28L16.54,60.1a1.09,1.09,0,0,1,.51-.16,3.28,3.28,0,0,1,.86.07,3.71,3.71,0,0,0,.6.08.57.57,0,0,0,.31-.11.32.32,0,0,0,.16-.23.38.38,0,0,0-.08-.26.33.33,0,0,0-.23-.14.49.49,0,0,0-.32.1L18.08,59a.85.85,0,0,1,.66-.14,1,1,0,0,1,.51.37.92.92,0,0,1,.2.62.69.69,0,0,1-.29.5.89.89,0,0,1-.31.15,1.2,1.2,0,0,1-.4,0A2.94,2.94,0,0,1,18,60.5l-.42-.06h-.18Zm11.27,9.67,2-4.64L30.44,66A28.6,28.6,0,0,1,17.66,55.59l-.5,3.11,0,.08h-.08l-3,.39a28.64,28.64,0,0,0,2.13,2.67,31.41,31.41,0,0,0,2.58,2.58A35.94,35.94,0,0,0,29.27,70.92Z"/><path class="cls-2" d="M50,67.78l.15-.6.58-.12-.4.66Zm-.17,3.13-.53-2.73,2-.4.09.46-1.47.29.12.61,1.36-.27.09.46-1.36.27.14.74,1.52-.3.09.46ZM47.72,70l-.47-1L47,70.11Zm1.13,1-.61,0L48,70.49l-1.11.1-.18.65-.59.05.83-2.86.59-.05Zm-4.21-.79.54.17a1.22,1.22,0,0,1-.41.68,1.19,1.19,0,0,1-.74.23,1.21,1.21,0,0,1-.91-.38,1.45,1.45,0,0,1-.36-1,1.53,1.53,0,0,1,.36-1.08,1.24,1.24,0,0,1,.94-.38,1.16,1.16,0,0,1,.83.3,1,1,0,0,1,.28.51l-.55.14a.53.53,0,0,0-.21-.34.55.55,0,0,0-.38-.13.63.63,0,0,0-.5.22,1.09,1.09,0,0,0-.19.72,1.15,1.15,0,0,0,.19.75.62.62,0,0,0,.49.23.56.56,0,0,0,.39-.15A.8.8,0,0,0,44.64,70.26ZM41,70l-.28-1.06-.48,1Zm.91,1.21-.61-.07-.17-.65L40,70.37l-.3.6-.59-.06,1.37-2.65.59.06Zm-6.25-.94.57-2.72.82.17.11,2L38,67.92l.82.17-.56,2.72-.51-.1.44-2.15-1,2-.53-.11-.09-2.26-.45,2.15Zm8.57,2h0a41.41,41.41,0,0,0,6.83-.57l1.08-.2a38.89,38.89,0,0,0,5.22-1.4l-1.86-4.7c-.46.16-.93.3-1.4.44s-1,.28-1.53.4a35.56,35.56,0,0,1-8.35,1h0a36.42,36.42,0,0,1-5.87-.48l-.93-.16a34.09,34.09,0,0,1-4.47-1.18l-1.86,4.7c.54.18,1.08.36,1.64.52s1.18.34,1.78.48A40.54,40.54,0,0,0,44.21,72.29Z"/><path class="cls-1" d="M35.43,26.42A19.08,19.08,0,0,1,44,24.31a19.85,19.85,0,0,1,8.62,2.11Z"/><path class="cls-2" d="M50.6,21.58a2.07,2.07,0,0,0,0-.22,1.55,1.55,0,0,0,0-.22.91.91,0,0,0-.62-.77h0a.63.63,0,0,0-.19,0,.68.68,0,0,0-.2,0,1,1,0,0,0-.74.71L48.4,22.7l1.72.5.47-1.62Zm-5.68-1.09v-.34l0,0,0,0,0,0,0,0,0,0,0,0,0,0,0,0,0,0,0,0,0,0,0,0,0,0h0l0,0,0,0H44l0,0,0,0h0l0,0,0,0,0,0,0,0,0,0,0,0,0,0,0,0,0,0,0,0,0,0,0,0v0l0,0V22h1.4Zm-7.1,1h0l.44,1.63L40,22.61,39.55,21a1,1,0,0,0-.73-.73.68.68,0,0,0-.2,0,.63.63,0,0,0-.19,0h0a.84.84,0,0,0-.53.43A1,1,0,0,0,37.82,21.44Zm15.57,4.74h0l.41-.73,0-.77,1.46-3,.43-.1.87-2-.5-.34-.25.55-.51.09L55,19.44l.24-.64-.54-.32L54,20.26v.68h-.64l-.26.69-.55.15-.23-.48.16-.76-.57-.37.5-.77.44-1.66-.7-.36-.25.81-.9-.3.16-.87-1-.26-.17.82L49,17.4l.06-.88-.76-.08L48,18.3l.13.88h-.73l-.11.62-.41.36-.42-.37v-.65L45.83,19l.49-1.36V16h-.91l0,.85-.88,0v-1H43.7v1l-.87,0,0-.85h-.92v1.69L42.43,19l-.67.11v.65l-.42.37-.41-.36-.11-.62H40.1l.12-.88-.29-1.86-.76.08.06.88-.92.18-.17-.82-1,.26.17.87-.91.3-.25-.81-.7.36.45,1.66.49.77-.57.37.17.76-.24.48-.55-.15-.26-.69h-.63v-.68l-.75-1.78L33,18.8l.23.64-.27.47-.51-.09-.24-.55-.51.34.87,2,.43.1,1.46,3,0,.77.39.68A19.33,19.33,0,0,1,44,23.71,20.29,20.29,0,0,1,53.39,26.18Z"/><path class="cls-1" d="M35.18,24.52h0l-.77.42v.21a19.39,19.39,0,0,1,9.68-2.66,20.49,20.49,0,0,1,9.78,2.71V25c-.67-.36-1.33-.7-2-1h0a22.08,22.08,0,0,0-2.08-.79l-1.18-.35a18.26,18.26,0,0,0-4-.59H43.42a16.92,16.92,0,0,0-3.52.47L38.82,23a21.41,21.41,0,0,0-3.64,1.48"/><path class="cls-1" d="M53.88,24.85v-.13a0,0,0,0,1,0,0h0l-.57-.3L54.05,23l0-.05,0,0,0,0,0,0,0,0,0,0,0,0,0,0,0,0,0,0,0,0,0,0,0,0,0,0,0,0h.41l.06-.13-.11,0a.55.55,0,0,0-.18,0,1,1,0,0,0-.81.53l-.79,1.49Z"/></g></g></svg>